<svg xmlns="http://www.w3.org/2000/svg" viewBox="0 0 800 600">
  <path d="M 457.8858947753906 33.22147750854492 C 457.36240356445313 33.22147750854492, 462.154345703125 34.00671283721924, 455.8724670410156 33.22147750854492 C 449.59058837890626 32.436242179870604, 444.4563690185547 30.46308723449707, 433.7248229980469 30.20134162902832 C 422.99327697753904 29.93959602355957, 422.7113879394531 29.859058647155763, 414.5972900390625 32.21476364135742 C 406.4831921386719 34.57046863555908, 406.96641357421873 35.33557029724121, 402.5167541503906 39.26174545288086 C 398.0670947265625 43.18792060852051, 399.3154266357422 42.86577293395996, 397.48321533203125 47.31543731689453 C 395.6510040283203 51.7651016998291, 397.04026123046873 52.18792045593262, 395.46978759765625 56.37583923339844 C 393.89931396484377 60.563758010864255, 394.3221258544922 62.37583778381347, 391.44293212890625 63.42281723022461 C 388.5637384033203 64.46979667663574, 386.48992248535154 64.328857421875, 384.3959655761719 60.40268325805664 C 382.3020086669922 56.47650909423828, 383.3892517089844 53.818791198730466, 383.3892517089844 48.322147369384766 C 383.3892517089844 42.825503540039065, 385.18120239257814 41.879194564819336, 384.3959655761719 39.26174545288086 C 383.6107287597656 36.64429634094238, 382.46307495117185 37.20805595397949, 380.3691101074219 38.255035400390625 C 378.2751452636719 39.30201484680176, 377.12749145507814 39.3624153137207, 376.3422546386719 43.28858947753906 C 375.5570178222656 47.21476364135742, 377.61071411132815 48.12080604553223, 377.3489685058594 53.35570526123047 C 377.0872229003906 58.59060447692871, 377.1677520751953 59.49664306640625, 375.3355407714844 63.42281723022461 C 373.5033294677734 67.34899139404297, 373.18119567871094 65.57718040466308, 370.302001953125 68.45637512207031 C 367.42280822753906 71.33556983947754, 367.6644036865234 70.0469776916504, 364.26171875 74.49664306640625 C 360.8590338134766 78.9463084411621, 362.7113940429688 80.59731811523437, 357.2147521972656 85.57047271728516 C 351.7181103515625 90.54362731933594, 350.97314086914065 90.48322143554688, 343.12078857421875 93.62416076660156 C 335.26843627929685 96.76510009765624, 333.29527587890624 95.81879333496094, 327.0133972167969 97.65100860595703 C 320.7315185546875 99.48322387695312, 323.1476385498047 98.57718368530273, 318.959716796875 100.671142578125 C 314.7717950439453 102.76510147094727, 314.3086907958984 102.8255029296875, 310.906005859375 105.70469665527344 C 307.5033209228516 108.58389038085937, 310.5838720703125 104.67784912109374, 305.8724670410156 111.74496459960938 C 301.16106201171874 118.812080078125, 298.2818591308594 125.29530731201172, 292.78521728515625 132.8859100341797 C 287.2885754394531 140.47651275634766, 288.9194586181641 137.27516387939454, 284.7315368652344 140.93959045410156 C 280.5436151123047 144.60401702880858, 281.1274932861328 145.40938873291014, 276.6778259277344 146.9798583984375 C 272.22815856933596 148.55032806396486, 272.5905822753906 147.2416000366211, 267.617431640625 146.9798583984375 C 262.6442810058594 146.7181167602539, 263.3087149047852 147.0201382446289, 257.5503234863281 145.97315979003906 C 251.7919320678711 144.92618133544923, 249.91943969726563 144.52348785400392, 245.4697723388672 142.95301818847656 C 241.02010498046874 141.3825485229492, 243.05366638183594 141.50336151123048, 240.43621826171875 139.93289184570312 C 237.81877014160156 138.36242218017577, 238.0201123046875 136.65100860595703, 235.4026641845703 136.91275024414062 C 232.78521606445312 137.17449188232422, 231.4160885620117 138.06039672851563, 230.36911010742188 140.93959045410156 C 229.32213165283204 143.8187841796875, 229.80535430908202 144.58388732910157, 231.37582397460938 147.986572265625 C 232.94629364013673 151.38925720214843, 234.5771627807617 150.88590087890626, 236.4093780517578 154.02684020996094 C 238.2415933227539 157.16777954101562, 238.4228057861328 157.71140167236328, 238.4228057861328 160.06710815429688 C 238.4228057861328 162.42281463623047, 237.97985168457032 161.7785217285156, 236.4093780517578 163.08724975585938 C 234.8389044189453 164.39597778320314, 234.7382290649414 164.3154446411133, 232.3825225830078 165.10067749023438 C 230.02681610107422 165.88591033935546, 230.48990783691406 165.84563446044922, 227.34896850585938 166.1073760986328 C 224.2080291748047 166.3691177368164, 223.18118041992187 166.3691177368164, 220.30198669433594 166.1073760986328 C 217.42279296875 165.84563446044922, 220.46306427001954 165.62416473388672, 216.275146484375 165.10067749023438 C 212.08722869873046 164.57719024658203, 209.1677651977539 164.09396362304688, 204.19461059570312 164.09396362304688 C 199.22145599365234 164.09396362304688, 200.55031372070312 164.3154446411133, 197.1476287841797 165.10067749023438 C 193.74494384765626 165.88591033935546, 195.03353302001952 166.32885711669923, 191.10736083984375 167.1140899658203 C 187.18118865966798 167.8993228149414, 186.49662994384767 167.85905822753907, 182.04696655273438 168.1208038330078 C 177.59730316162108 168.38254943847656, 176.61072296142578 166.55033416748046, 173.99327087402344 168.1208038330078 C 171.3758187866211 169.69127349853517, 169.36239501953125 169.18791717529297, 171.97984313964844 174.16107177734375 C 174.59729125976563 179.13422637939453, 177.77850036621095 181.75167572021485, 184.0603790283203 187.24832153320312 C 190.34225769042968 192.7449673461914, 189.3355450439453 191.3758410644531, 196.1409149169922 195.30201721191406 C 202.94628479003907 199.228193359375, 203.42950866699218 198.94631408691407, 210.23487854003906 202.3489990234375 C 217.04024841308595 205.75168395996093, 213.93957489013673 203.41611236572265, 222.31541442871094 208.38926696777344 C 230.69125396728515 213.36242156982422, 234.33555206298828 214.40940521240233, 242.44964599609375 221.4765167236328 C 250.56373992919922 228.5436282348633, 248.81206298828124 227.45637115478516, 253.52346801757812 235.57046508789062 C 258.234873046875 243.6845590209961, 257.95298645019534 245.87920043945311, 260.5704345703125 252.6845703125 C 263.18788269042966 259.48994018554686, 262.80533935546873 257.81878845214845, 263.590576171875 261.7449645996094 C 264.37581298828127 265.6711407470703, 265.42278747558595 266.7382653808594, 263.590576171875 267.7852478027344 C 261.75836486816405 268.83223022460936, 259.42280334472656 267.34229370117185, 256.5436096191406 265.7718200683594 C 253.6644158935547 264.2013464355469, 254.61071502685547 260.9597357177734, 252.51675415039062 261.7449645996094 C 250.42279327392578 262.53019348144534, 249.53689239501952 264.08051818847656, 248.4899139404297 268.79193115234375 C 247.44293548583985 273.50334411621094, 248.22816833496094 272.7986682128906, 248.4899139404297 279.86578369140625 C 248.75165954589843 286.9328991699219, 251.06709747314454 289.16777465820314, 249.4966278076172 295.97314453125 C 247.92615814208983 302.77851440429686, 247.1610549926758 301.5906158447266, 242.44964599609375 306.040283203125 C 237.7382369995117 310.4899505615234, 242.10736999511718 312.0402752685547, 231.37582397460938 313.0872497558594 C 220.64427795410157 314.13422424316406, 216.87916961669922 311.63758178710935, 201.17446899414062 310.0671081542969 C 185.46976837158203 308.4966345214844, 189.81876525878906 308.8791778564453, 170.97312927246094 307.0469665527344 C 152.12749328613282 305.2147552490234, 146.2281655883789 304.32886169433596, 128.69125366210938 303.0201416015625 C 111.15434173583984 301.71142150878904, 114.77850128173829 299.91947082519533, 103.52346801757812 302.013427734375 C 92.26843475341796 304.10738464355467, 92.73152328491211 307.4093914794922, 85.40266418457031 311.0738220214844 C 78.07380508422851 314.7382525634766, 78.47648773193359 313.22819763183594, 75.3355484008789 316.1073913574219 C 72.19460906982422 318.9865850830078, 72.27514785766601 318.48321350097655, 73.32212829589844 322.14764404296875 C 74.36910873413086 325.81207458496095, 75.95971130371093 325.75168762207034, 79.36239624023438 330.20135498046875 C 82.76508117675782 334.65102233886716, 84.57716278076173 330.1006768798828, 86.40937805175781 339.2617492675781 C 88.2415933227539 348.4228216552734, 86.9328692626953 355.2281939697266, 86.40937805175781 365.4362487792969 C 85.88588684082032 375.64430358886716, 86.75165481567383 371.9798742675781, 84.39595031738281 378.52349853515625 C 82.0402458190918 385.0671228027344, 81.01340469360352 383.79866455078127, 77.3489761352539 390.6040344238281 C 73.6845475769043 397.409404296875, 73.70467926025391 398.41611938476564, 70.30199432373047 404.697998046875 C 66.89930938720703 410.97987670898436, 66.35568626403808 409.00671875, 64.26172637939453 414.7651062011719 C 62.16776649475098 420.52349365234375, 62.77179267883301 421.87249145507815, 62.2483024597168 426.84564208984375 C 61.724812240600585 431.81879272460935, 61.724812240600585 431.0134149169922, 62.2483024597168 433.8926086425781 C 62.77179267883301 436.77180236816406, 62.95300132751465 435.5637536621094, 64.26172637939453 437.9194641113281 C 65.57045143127442 440.2751745605469, 65.18790145874023 441.1208221435547, 67.2818603515625 442.9530334472656 C 69.37581924438477 444.7852447509766, 69.95970993041992 443.9194561767578, 72.31541442871094 444.9664306640625 C 74.67111892700196 446.0134051513672, 73.98655776977539 445.14763916015625, 76.3422622680664 446.9798583984375 C 78.69796676635742 448.81207763671875, 80.59058151245117 447.04026916503904, 81.37581634521484 452.013427734375 C 82.16105117797852 456.98658630371096, 80.40937469482422 460.08725830078123, 79.36239624023438 466.1073913574219 C 78.31541778564453 472.1275244140625, 77.87246536254882 470.19463500976565, 77.3489761352539 475.16778564453125 C 76.82548690795899 480.14093627929685, 77.08723251342774 482.3557000732422, 77.3489761352539 485.2348937988281 C 77.61071975708008 488.11408752441406, 73.64427337646484 485.71811645507813, 78.35568237304688 486.2416076660156 C 83.06709136962891 486.7650988769531, 85.7852163696289 487.2483215332031, 95.46977996826172 487.2483215332031 C 105.15434356689454 487.2483215332031, 108.01340118408203 486.5033532714844, 115.60400390625 486.2416076660156 C 123.19460662841797 485.97986206054685, 121.26172088623046 485.19462524414064, 124.6644058227539 486.2416076660156 C 128.06709075927733 487.2885900878906, 125.81205795288086 486.3422869873047, 128.69125366210938 490.2684631347656 C 131.5704493713379 494.19463928222655, 132.59729614257813 496.8926257324219, 135.7382354736328 501.34228515625 C 138.8791748046875 505.7919445800781, 136.32212615966796 504.2416064453125, 140.77178955078125 507.3825378417969 C 145.22145294189454 510.5234692382812, 147.35567962646485 512.6375537109375, 152.85232543945312 513.4227905273438 C 158.3489712524414 514.20802734375, 156.4160891723633 513.5436108398437, 161.91273498535156 510.4026794433594 C 167.40938079833984 507.261748046875, 168.23488342285157 505.2684613037109, 173.99327087402344 501.34228515625 C 179.7516583251953 497.4161090087891, 178.30199157714844 497.91945007324216, 184.0603790283203 495.302001953125 C 189.81876647949218 492.68455383300784, 186.9798385620117 493.3691339111328, 196.1409149169922 491.2751770019531 C 205.30199127197267 489.18122009277346, 208.04025482177735 489.8657696533203, 219.2952880859375 487.2483215332031 C 230.55032135009765 484.63087341308596, 228.69796630859375 484.87249938964845, 239.42950439453125 481.20806884765625 C 250.16104248046875 477.54363830566405, 251.9328454589844 479.4362445068359, 260.5704345703125 473.15435791015625 C 269.2080236816406 466.8724713134766, 267.67784240722654 465.42280212402346, 272.6510009765625 457.0469665527344 C 277.62415954589846 448.6711309814453, 279.1744842529297 448.79195007324216, 279.6979675292969 440.9396057128906 C 280.22145080566406 433.0872613525391, 276.23487182617185 433.1275207519531, 274.6643981933594 426.84564208984375 C 273.0939245605469 420.5637634277344, 271.8254650878906 423.8456494140625, 273.6576843261719 416.7785339355469 C 275.48990356445313 409.71141845703124, 276.9999822998047 407.2550354003906, 281.7113952636719 399.6644287109375 C 286.42280822753906 392.0738220214844, 287.06709838867187 392.8187890625, 291.77850341796875 387.5838928222656 C 296.48990844726563 382.34899658203125, 293.2885595703125 384.24162536621094, 299.8321838378906 379.53021240234375 C 306.37580810546876 374.81879943847656, 309.0939367675781 373.3892498779297, 316.9462890625 369.46307373046875 C 324.7986413574219 365.5368975830078, 322.96642333984374 367.8322198486328, 330.0335388183594 364.4295349121094 C 337.100654296875 361.02684997558595, 338.6308605957031 361.61072814941406, 344.12750244140625 356.3758239746094 C 349.6241442871094 351.1409197998047, 350.12749450683594 350.31542114257815, 351.1744689941406 344.2952880859375 C 352.2214434814453 338.27515502929685, 349.7247930908203 339.5033447265625, 348.1543273925781 333.2214660644531 C 346.58386169433595 326.93958740234376, 344.08723388671876 325.6308581542969, 345.13421630859375 320.13421630859375 C 346.18119873046874 314.6375744628906, 346.1610498046875 314.69798400878904, 352.1811828613281 312.0805358886719 C 358.20131591796877 309.4630877685547, 360.6979675292969 310.32885375976565, 368.28857421875 310.0671081542969 C 375.8791809082031 309.8053625488281, 371.4295147705078 308.9798571777344, 381.3758239746094 311.0738220214844 C 391.32213317871094 313.16778686523435, 395.0268347167969 316.2885998535156, 406.5436096191406 318.1208190917969 C 418.06038452148437 319.95303833007813, 418.60399658203124 320.4765295410156, 425.6711120605469 318.1208190917969 C 432.7382275390625 315.7651086425781, 429.5369012451172 314.29529846191406, 433.7248229980469 309.0603942871094 C 437.9127447509766 303.8254901123047, 436.0201159667969 302.6979772949219, 441.77850341796875 297.986572265625 C 447.5368908691406 293.2751672363281, 446.97314025878904 294.08054504394534, 455.8724670410156 290.9396057128906 C 464.7717938232422 287.7986663818359, 467.6308477783203 286.4295275878906, 476.0066833496094 285.9060363769531 C 484.38251892089846 285.38254516601563, 481.8053405761719 285.2617474365234, 488.08721923828125 288.9261779785156 C 494.3690979003906 292.5906085205078, 494.67110534667967 292.67113891601565, 500.1677551269531 300 C 505.6644049072266 307.32886108398435, 504.51676696777344 307.9530328369141, 509.2281799316406 317.1141052246094 C 513.9395928955078 326.2751776123047, 510.95972106933596 326.0738214111328, 518.28857421875 335.2348937988281 C 525.617427368164 344.3959661865234, 525.6375561523438 344.2349011230469, 537.4160766601562 352.3489990234375 C 549.1945971679687 360.4630969238281, 551.288564453125 359.89933837890624, 563.590576171875 366.4429626464844 C 575.892587890625 372.9865869140625, 574.7851892089843 371.7583972167969, 584.7315063476562 377.51678466796875 C 594.6778234863282 383.2751721191406, 593.7315441894531 382.30872802734376, 601.8456420898438 388.5906066894531 C 609.9597399902344 394.8724853515625, 609.1342053222656 392.7785296630859, 615.9395751953125 401.6778564453125 C 622.7449450683594 410.5771832275391, 623.8322277832032 414.44295104980466, 628.0201416015625 422.81878662109375 C 632.2080554199218 431.19462219238284, 631.5234606933594 428.65770446777344, 632.0469360351562 433.8926086425781 C 632.5704113769531 439.1275128173828, 633.4361853027344 438.7651116943359, 630.0335083007812 442.9530334472656 C 626.6308312988281 447.1409552001953, 621.3154113769531 445.8120861816406, 618.959716796875 450 C 616.6040222167969 454.1879138183594, 619.6644165039063 455.13421813964845, 620.97314453125 459.0603942871094 C 622.2818725585937 462.9865704345703, 621.6375915527344 465.36242309570315, 623.9932861328125 465.1006774902344 C 626.3489807128906 464.8389318847656, 627.6778137207032 461.9798565673828, 630.0335083007812 458.0536804199219 C 632.3892028808593 454.12750427246095, 631.2214306640625 454.7114050292969, 633.0536499023438 450 C 634.885869140625 445.2885949707031, 633.9395581054688 443.85906799316405, 637.0805053710938 439.9328918457031 C 640.2214526367187 436.0067156982422, 641.4697778320312 437.25502502441407, 645.1342163085938 434.8993225097656 C 648.7986547851563 432.5436199951172, 650.6510083007812 434.53692810058595, 651.1744995117188 430.87249755859375 C 651.6979907226563 427.20806701660155, 650.5503369140625 426.8254998779297, 647.1476440429688 420.80535888671875 C 643.744951171875 414.7852178955078, 640.4429296875 412.42951416015626, 638.0872192382812 407.7181091308594 C 635.7315087890624 403.0067041015625, 635.9932543945313 405.30201843261716, 638.0872192382812 402.6845703125 C 640.1811840820312 400.06712219238284, 639.3355603027344 398.1744921875, 646.1409301757812 397.6510009765625 C 652.9463000488281 397.127509765625, 656.4093664550782 399.36241455078124, 664.26171875 400.671142578125 C 672.1140710449218 401.97987060546876, 672.1543713378907 402.9463159179688, 676.34228515625 402.6845703125 C 680.5301989746093 402.4228247070312, 680.6308251953125 402.54362243652344, 680.3690795898438 399.6644287109375 C 680.107333984375 396.78523498535156, 678.7382482910157 395.2751788330078, 675.3355712890625 391.6107482910156 C 671.9328942871093 387.9463177490234, 674.0872302246094 388.71140441894534, 667.2818603515625 385.5704650878906 C 660.4764904785156 382.4295257568359, 658.5838977050781 383.4563885498047, 649.1610717773438 379.53021240234375 C 639.7382458496094 375.6040362548828, 636.7986096191406 374.13421813964845, 631.0402221679688 370.46978759765625 C 625.2818347167969 366.80535705566405, 626.7516821289063 369.1006793212891, 627.013427734375 365.4362487792969 C 627.2751733398437 361.7718182373047, 632.308681640625 360.3020001220703, 632.0469360351562 356.3758239746094 C 631.7851904296875 352.44964782714845, 630.7181188964844 352.16778259277345, 626.0067138671875 350.3355712890625 C 621.2953088378906 348.50335998535155, 620.7315173339844 349.8523486328125, 613.9261474609375 349.328857421875 C 607.1207775878906 348.8053662109375, 605.0671105957031 349.8926092529297, 599.8322143554688 348.3221435546875 C 594.5973181152344 346.7516778564453, 597.4563696289063 347.73826416015623, 593.7919311523438 343.2886047363281 C 590.1274926757812 338.8389453125, 588.8791674804687 338.7986755371094, 585.7382202148438 331.20806884765625 C 582.5972729492188 323.6174621582031, 585.1140417480469 320.89933349609373, 581.7113647460938 314.0939636230469 C 578.3086877441406 307.28859375, 577.1006604003907 309.4832366943359, 572.6510009765625 305.0335693359375 C 568.2013415527343 300.5839019775391, 569.0469653320313 301.1677801513672, 564.5972900390625 296.9798583984375 C 560.1476147460937 292.7919366455078, 559.7247790527343 293.114091796875, 555.536865234375 288.9261779785156 C 551.3489514160157 284.73826416015623, 551.1073693847657 287.1543762207031, 548.4899291992188 280.87249755859375 C 545.8724890136718 274.5906188964844, 546.2550244140625 270.7852471923828, 545.4697875976562 264.7651062011719 C 544.68455078125 258.7449652099609, 541.8053649902344 261.6442852783203, 545.4697875976562 257.7181091308594 C 549.1342102050781 253.79193298339842, 553.2818420410156 252.02013122558594, 559.563720703125 249.6644287109375 C 565.8455993652344 247.30872619628906, 565.4429296875 247.08724517822264, 569.630859375 248.65771484375 C 573.8187890625 250.22818450927736, 573.3154321289062 251.51677490234374, 575.671142578125 255.70469665527344 C 578.0268530273438 259.89261840820313, 577.1208264160156 261.36242523193357, 578.6912841796875 264.7651062011719 C 580.2617419433594 268.1677871704102, 579.0939245605468 267.4832110595703, 581.7113647460938 268.79193115234375 C 584.3288049316407 270.1006512451172, 585.6174145507813 270.06038269042966, 588.7583618164062 269.79864501953125 C 591.8993090820312 269.53690734863284, 590.9127294921875 267.0000109863281, 593.7919311523438 267.7852478027344 C 596.6711328125 268.57048461914064, 596.6912829589844 268.36912719726564, 599.8322143554688 272.81878662109375 C 602.9731457519531 277.26844604492186, 602.9932507324219 279.4026806640625, 605.8724365234375 284.8993225097656 C 608.7516223144531 290.3959643554688, 607.76505859375 290.0335406494141, 610.906005859375 293.959716796875 C 614.046953125 297.8858929443359, 612.1946154785156 296.3355694580078, 617.9530029296875 300 C 623.7113903808594 303.6644305419922, 625.2012976074219 304.3892498779297, 633.0536499023438 308.0536804199219 C 640.9060021972656 311.7181109619141, 640.8254968261718 310.95302429199216, 648.1543579101562 314.0939636230469 C 655.4832189941407 317.2349029541016, 655.7449353027343 316.99327697753904, 661.2415771484375 320.13421630859375 C 666.7382189941407 323.27515563964846, 664.0603918457032 321.98657775878905, 669.2952880859375 326.17449951171875 C 674.5301843261718 330.36242126464845, 675.3556604003907 330.48322021484375, 681.3757934570312 336.2416076660156 C 687.3959265136718 341.9999951171875, 688.5234619140625 340.2080456542969, 692.4496459960938 348.3221435546875 C 696.375830078125 356.4362414550781, 695.1677734375 357.5033673095703, 696.4765014648438 367.4496765136719 C 697.7852294921875 377.39598571777344, 695.65099609375 376.89261535644533, 697.4832153320312 386.5771789550781 C 699.3154345703125 396.2617425537109, 697.2416198730468 396.8456457519531, 703.5234985351562 404.697998046875 C 709.8053771972657 412.5503503417969, 713.530205078125 411.2818920898437, 721.644287109375 416.7785339355469 C 729.758369140625 422.27517578125, 731.3288293457031 423.4832257080078, 734.7315063476562 425.83892822265625" fill="none" stroke="black" stroke-width="2" stroke-linecap="round" stroke-linejoin="round" />
</svg>