<?xml version="1.0" encoding="utf-8"?>
<!DOCTYPE svg PUBLIC "-//W3C//DTD SVG 1.0//EN" "http://www.w3.org/TR/2001/REC-SVG-20010904/DTD/svg10.dtd">
<svg version="1.0" xmlns="http://www.w3.org/2000/svg" width="1652px" height="1190px" viewBox="0 0 1652 1190" preserveAspectRatio="xMidYMid meet">
 <g fill="none" stroke="#000000" stroke-width="1">
  <path d="M0.4 0.4C1.4 -0.8 4.8 0.2 6.2 0.2L22.6 0.2L86 0.2L332 0.2L1286.6 0.2L1557.2 0.2L1627 0.2L1645 0.2C1646.4 0.2 1650.4 -0.8 1651.4 0.4C1652.2 1 1651.8 3.6 1651.8 4.4L1651.8 15.8L1651.8 63.2L1651.8 256.4L1651.8 961.2L1651.8 1133.8L1651.8 1176L1651.8 1186.2C1651.8 1187 1652.2 1189.2 1651.4 1189.8C1650.4 1190.6 1646.4 1190 1645 1190L1627 1190L1557.2 1190L1286.6 1190L332.4 1190L86.2 1190L22.6 1190L6.2 1190C4.8 1190 1.4 1190.6 0.4 1189.8C-0.4 1189.2 0 1187 0 1186.2L0 1176L0 1133.8L0 961.2L0 256.4L0 63.2L0 16L0 4.4C0 3.6 -0.8 1 0.4 0.4M132.8 34.4C134.8 34.4 134.6 37.8 132.6 37.8C130.8 37.8 131.2 34.4 132.8 34.4M772.8 34.4C774.8 34.4 774.6 37.8 772.6 37.8C770.8 37.8 771.2 34.4 772.8 34.4M154.6 34.4C152.4 38 148 40.6 146.4 44.8C145.8 46.4 148 45.8 148.2 47.2C148.4 49.6 146.6 53 145.6 55.2C145.2 56 145 57.2 144.2 57.6C143.4 58 143 56.8 142.6 56.2C142 54.6 141.4 52.8 140.4 51.6C139.8 51.2 139.2 50.6 138.4 51.2C137.4 52 138.4 53.8 138.8 54.8C139.6 57.4 140.8 62.8 144.4 62C146.2 61.6 147.4 59.4 148 57.8C149.4 54.6 150.2 50.4 152.2 47.4C152.6 47.8 153.6 48.6 154.4 48.4C155.2 48 155 45.8 155 45C155 41.8 154.8 38.4 154.8 35.2M794.6 34.4C792.4 38 788 40.6 786.4 44.8C785.8 46.4 788 45.8 788.2 47.2C788.4 49.6 786.6 53 785.6 55.2C785.2 56 785 57.2 784.2 57.6C783.4 58 783 56.8 782.6 56.2C782 55 780.4 49.4 778.2 51.2C777.4 51.8 778.2 53.2 778.4 54C779 55.6 779.8 57.2 780.2 59C780.6 60.4 780.4 61.8 781 63L782 62.4L782.8 63.8C783.8 62.6 785.2 62.2 786.2 61.2C786.8 60.6 787.2 59.6 788.2 59.4C790.4 59.2 792.8 62.8 793.8 64.4C796.4 61.8 791.6 57.8 788.8 57.4C788.8 55 790 52.6 790.8 50.4C791.2 49.6 791.4 48.4 792 48C792.8 47.2 794 49 794.6 47.8C795.2 46.6 795 45 795 43.8C795 41 794.8 38 794.8 35.2M794 64.8L795.2 64C796.2 66.8 795.8 70 795.6 72.8C795.4 78 794.8 83.4 794.4 88.6C794.2 91.6 793.6 94.8 794.4 97.8C795.4 101.8 800 104.8 804.2 103.4C806 102.6 807.4 101 808.4 99.4C817.4 84.8 815 63.8 832.2 54.8C852.2 44.4 875.8 39 898.2 38C905.2 37.6 912.2 37.6 919.2 38.6C926 39.4 932.8 40.4 939.4 42.4C940.8 42.8 945.2 43.4 945.6 45.2C945.8 46 944.8 46 944.2 46C942.6 45.6 941.2 45 939.6 44.6C933 43 926.2 41.6 919.4 40.6C897.8 37.6 874.6 41.4 854 48.2C846.6 50.6 838.8 53.4 832 57.4C820.4 64 818.4 78.6 814.6 90.2C813.2 94.2 811.8 98.8 809 102.2C804.8 107 797.2 107.2 793.6 101.4C791.8 98.4 792 94.4 792.2 91C792.6 85 793.2 79 793.6 73C793.8 70.4 794.6 67.2 793.8 64.6M135 40C137.2 39.4 137.2 42.8 135.2 43C133.2 43.4 133 40.4 135 40M775 40C777.2 39.4 777.2 42.8 775.2 43C773.2 43.4 773 40.4 775 40M137.2 44.8C139.2 44.4 139.6 47.8 137.6 48.2C135.2 48.4 134.8 45.2 137.2 44.8M777.2 44.8C779.2 44.4 779.6 47.8 777.6 48.2C775.2 48.4 774.8 45.2 777.2 44.8M788.8 57.4L788.8 59.2M780.8 63.2C780.8 67.2 780.2 71.4 779.8 75.4C779.4 80.8 779.2 86 777.6 91.2C771.6 111.2 757.4 128.8 743.4 143.8C735 152.8 726.6 162.2 716.2 169.2C704 177.2 688 178.6 674 181.4C670.6 182 667 182.8 663.6 183.6C662.8 183.8 660.4 184.2 660.4 185.4C660.4 186.8 663.2 185.8 663.8 185.6C667.4 184.6 671.2 184 675 183.2C690 180.2 707 178.6 719.6 169.6C727.6 163.8 734.4 156.4 741.2 149.2C756 133.8 771.2 116 778.2 95.4C780.6 88.6 781.2 81.6 782 74.4C782.2 71 781.8 67.2 782.8 64M795.2 63.6L795.2 64M388.8 98.4C390.8 98.4 390.6 101.8 388.6 101.8C386.8 101.8 387.2 98.4 388.8 98.4M410.6 98.4C408.4 102 404 104.6 402.4 108.8C401.8 110.4 404 109.8 404.2 111.2C404.4 113.6 402.6 117 401.6 119.2C401.2 120 401 121.2 400.2 121.6C399.4 122 399 120.8 398.6 120.2C398 118.8 397.6 117 396.4 115.8C396 115.2 395.2 114.6 394.4 115.2C393.4 116 394.4 117.8 394.8 118.8C395.6 121.4 396.8 126.8 400.4 126C402.2 125.6 403.4 123.4 404 121.8C405.4 118.6 406.2 114.4 408.2 111.4C408.6 111.8 409.6 112.6 410.4 112.4C411.2 112 411 109.8 411 109C411 105.8 410.8 102.4 410.8 99.2M391 104C393.2 103.4 393.2 106.8 391.2 107C389.2 107.4 389 104.4 391 104M393.2 108.8C395.2 108.4 395.6 111.8 393.6 112.2C391.2 112.4 390.8 109.2 393.2 108.8M644.8 162.4C646.8 162.4 646.6 165.8 644.6 165.8C642.8 165.8 643.2 162.4 644.8 162.4M666.6 162.4C664.4 166 660 168.6 658.4 172.8C657.8 174.4 660 173.8 660.2 175.2C660.4 177.6 658.6 181 657.6 183.2C657.2 184 657 185.2 656.2 185.6C655.4 186 655 184.8 654.6 184.2C654 183 652.4 177.4 650.2 179.2C649.6 179.8 650 180.8 650.2 181.6C650.8 183.6 651.8 185.4 651.8 187.6C653.8 188 651.8 189.8 652.8 190.2C655.8 191.8 659.4 188 661.2 186.4M666.8 163.2C666.8 166 667 169 667 171.8C667 173 667.2 174.6 666.6 175.8C666.2 177 664.8 175.4 663.8 176.2C662.4 177.8 661.4 182 661.2 184M647 168C649.2 167.4 649.2 170.8 647.2 171C645.2 171.4 645 168.4 647 168M649.2 172.8C651.2 172.4 651.6 175.8 649.6 176.2C647.2 176.4 646.8 173.2 649.2 172.8M651.8 187.6C649 189.6 646.2 191 643.8 193.4C635.8 201.4 630.4 212.2 624.2 221.6C608.8 245 591.8 271.8 564.4 282.2C559.6 284 554.6 282.8 549.6 282.6C536.8 282 524.2 281 513.6 273.2C507.6 268.8 501.4 263.4 494.2 260.8C490.2 259.2 486 258.8 482.4 261.4C476 266.2 478.4 272.4 481.4 278.4C482.4 280.6 483.6 282.6 484.8 284.8C489.4 292.8 499.8 304.8 491.8 313.8C490.8 315 489.6 316 488.2 316.8C484.6 319 480.4 320.2 476.2 321.2C470.8 322.4 465.2 323.4 459.8 323.2C446.8 322.6 434.2 318.4 421.2 317.2C410.2 316.2 400.2 319.8 389.4 321.2C382.4 322 375.4 321.8 368.4 322.8C365.4 323.2 361.4 323.8 359.2 326.2C356.6 329.2 359.4 334 360.8 337C365 346.6 370.8 354.4 378.2 361.8C390.6 374.2 405.2 383.4 420.4 391.6C440.4 402.6 461.4 412.4 480.8 424.6C489.8 430.2 498.6 436.4 506.4 443.8C508.4 445.6 510.2 447.6 512.2 449.6C513 450.4 514 451.4 515.2 451L515.4 451.2L515.4 451.4L514.6 452.2L514.4 452L514.2 451.4M521 458.4C519.8 459 520.8 459.8 520.2 460.8C520 461.2 519.2 461.6 519.2 462.2C519.4 463.2 521.4 464.6 522.4 464.2C523.2 463.8 523.4 462.4 524 461.8C521.8 459.8 520.2 456.4 518.8 453.8C518.4 453 518.4 451.6 517.8 450.8C516.8 449.4 514.2 448.8 512.8 447.4C506.2 441 499.4 434.6 491.8 429.4C461.4 408.2 425.8 395.8 395.8 374.2C384.4 366 374.8 356.4 367 344.8C364.2 340.6 360.2 334.8 360 329.6C360 326.2 364.4 325.6 367 325.2C374.8 323.8 383.2 323.4 391.2 322.8C401.4 322.2 410.6 318.2 420.8 319.2C433.8 320.4 446.4 324.6 459.6 325.2C466 325.4 472.4 324.4 478.6 322.6C482 321.8 485.6 320.6 488.6 318.8C490.2 317.8 492 316.6 493.4 315.2C501.6 306 492.8 294.4 487.8 286C486.8 284.2 485.8 282.4 484.8 280.6C482.2 276 477.2 268 482.8 263.8C486.8 260.8 490.8 261.6 495 263.6C501.6 266.6 507.4 271.2 513.4 275.4C516 277.2 519 279.4 522 280.8C525.6 282.2 529.8 282.8 533.8 283.2C540 284 546.4 284.6 552.6 284.6C557.6 284.6 563 285.2 567.8 283.4C576 280.2 583.6 273.8 590 268C604.4 255 615.2 239.2 625.6 223C629.4 217 633.2 210.8 637.2 204.8C641.2 198.8 645.4 193.2 652.2 190.4M772.8 194.4C774.8 194.4 774.6 197.8 772.6 197.8C770.8 197.8 771.2 194.4 772.8 194.4M794.6 194.4C792.4 198 788 200.6 786.4 204.8C785.8 206.4 788 205.8 788.2 207.2C788.4 209.6 786.6 213 785.6 215.2C785.2 216 785 217.2 784.2 217.6C783.4 218 783 216.8 782.6 216.2C782 214.8 781.6 213 780.4 211.8C780 211.2 779.2 210.6 778.4 211.2C777.4 212 778.4 213.8 778.8 214.8C779.6 217.4 780.8 222.8 784.4 222C786.2 221.6 787.4 219.4 788 217.8C789.4 214.6 790.2 210.4 792.2 207.4C792.6 207.8 793.6 208.6 794.4 208.4C795.2 208 795 205.8 795 205C795 201.8 794.8 198.4 794.8 195.2M775 200C777.2 199.4 777.2 202.8 775.2 203C773.2 203.4 773 200.4 775 200M777.2 204.8C779.2 204.4 779.6 207.8 777.6 208.2C775.2 208.4 774.8 205.2 777.2 204.8M772.8 354.4C774.8 354.4 774.6 357.8 772.6 357.8C770.8 357.8 771.2 354.4 772.8 354.4M794.6 354.4C792.4 358 788 360.6 786.4 364.8C785.8 366.4 788 365.8 788.2 367.2C788.4 369.6 786.6 373 785.6 375.2C785.2 376 785 377.2 784.2 377.6C783.4 378 783 376.8 782.6 376.2C782 374.6 781.4 372.8 780.4 371.6C779.8 371.2 779.2 370.6 778.4 371.2C777.4 372 778.4 373.8 778.8 374.8C779.6 377.4 780.8 382.8 784.4 382C786.2 381.6 787.4 379.4 788 377.8C789.4 374.6 790.2 370.4 792.2 367.4C792.6 367.8 793.6 368.6 794.4 368.4C795.2 368 795 365.8 795 365C795 361.8 794.8 358.4 794.8 355.2M775 360C777.2 359.4 777.2 362.8 775.2 363C773.2 363.4 773 360.4 775 360M777.2 364.8C779.2 364.4 779.6 367.8 777.6 368.2C775.2 368.4 774.8 365.2 777.2 364.8M900.8 386.4C902.8 386.4 902.6 389.8 900.6 389.8C898.8 389.8 899.2 386.4 900.8 386.4M922.6 386.4C920.4 390 916 392.6 914.4 396.8C913.8 398.4 916 397.8 916.2 399.2C916.4 401.6 914.6 405 913.6 407.2C913.2 408 913 409.2 912.2 409.6C911.4 410 911 408.8 910.6 408.2C910 406.6 909.4 404.8 908.4 403.6C907.8 403.2 907.2 402.6 906.4 403.2C905.4 404 906.4 405.8 906.8 406.8C907.6 409.4 908.8 414.8 912.4 414C914.2 413.6 915.4 411.4 916 409.8C917.4 406.6 918.2 402.4 920.2 399.4C920.6 399.8 921.6 400.6 922.4 400.4C923.2 400 923 397.8 923 397C923 393.8 922.8 390.4 922.8 387.2M903 392C905.2 391.4 905.2 394.8 903.2 395C901.2 395.4 901 392.4 903 392M905.2 396.8C907.2 396.4 907.6 399.8 905.6 400.2C903.2 400.4 902.8 397.2 905.2 396.8M515 449.4L515.2 451M538.6 450.4C536.4 454 532 456.8 530.4 460.8C529.8 462.4 531.8 462.2 532.2 463.4C532.6 465.2 530.4 470 529 471.2L524 462M538.8 451.2C538.8 454 539 457 539 459.8C539 461 539.2 462.6 538.6 463.8C538 465.2 536.6 463 535.8 464C535.2 465 534.8 466.6 534.4 467.6C533.4 470.4 531 474.2 531.2 477.2C531.4 480.6 533.4 484.8 534.2 488.2C536.2 496 538.2 504 540.6 511.8C541.6 515 543.2 518.2 543.8 521.4C544 522.8 544.2 524.4 543.6 525.6C542.2 528 539.2 528 536.8 527.2C531.6 525.6 527 521.6 522.6 518.4C520 516.6 516.4 513.4 515.4 518.2C513.8 524.4 514.6 531.6 514.8 538C515 543.4 514.8 549 515.2 554.4C516.6 573.2 518.6 594 504 608.6C501 611.6 497.6 614.2 493.8 616.2C483 622 472 622.6 460 622.6C443 622.6 426.6 620.4 409.8 618.2C379.6 614.2 349.4 610.4 319.2 606.8C292.8 603.4 265.8 600.2 239.2 602C216.4 603.6 193.4 607.4 173.2 619C168.4 621.6 164 624.8 159.8 628.4C157.8 630 155.6 631.8 154.6 634.2C153 638.4 156.4 642.8 158.8 645.8C164.2 653 170.8 659 173 668C175.8 679.4 176.2 691.2 176.4 702.8C176.8 720 176.2 737.8 172.8 754.6C170.6 766 165.8 776.6 160.8 787C155.6 798 149.8 809 144.6 820C141.8 825.8 139.4 831.6 136.6 837.4C135.8 839.2 133 839.8 133.2 842C133.2 842.6 133.8 843.6 134 844.2C136.6 843 136.6 841 136.6 838.4M514.6 452.2C515 453.4 516 454.2 516.6 455.2C517.6 457 517.8 458.4 519.8 459.6M521.8 460.2L522 460M522.6 460.2C522.2 461 522.4 461.4 523.2 461.2M520.8 460.4L521.6 460.2M521.4 460.4L521.8 460.8M522.8 461.8L523 462.4M523.4 464L523.4 464.8L522.4 464.6M523.4 464.8C524.6 467 525.6 469.2 526.8 471.4C527.8 473.2 528.8 473.4 529 471.2M134 839.4C136 830.8 140.8 822.8 144.8 815C148.8 807 152.6 798.8 156.6 790.6C160.2 783.4 164 776.2 167 768.6C171.6 756.4 172.8 743 173.6 730C174.4 718.6 174.6 707 174.2 695.6C173.8 685 173.8 672.4 169 662.6C166.6 657.6 162.6 653.6 159 649.4C155.6 645 149.2 637.8 153.2 632C158 625.2 167 620.2 174.2 616.4C195.6 604.6 218.6 601 242.6 600C271.6 598.8 300.2 602.6 329 606C356.2 609.2 383.6 612.6 410.8 616.2C429.6 618.8 448.8 622.4 467.8 620.6C477.6 619.8 487 618.2 495.4 612.8C501.6 609 508.2 602.4 511 595.6C513.8 588.8 513.4 581 513.4 573.8C513.4 563 513.4 552.4 512.6 541.6C512.2 536.2 512.2 530.8 512.4 525.4C512.6 522.2 512.8 518.4 514 515.4C515.4 512.6 518.2 513.4 520.4 514.6C525.4 517.2 529.4 521.2 534.4 523.8C535.8 524.6 541.2 527 542 524.2C542.2 523 541.6 521.4 541.2 520.2C540.4 517.4 539.6 514.6 538.6 511.8C536.6 505 534.6 498.2 532.8 491.2C532 488 531.6 483.2 529.8 480.6C528.8 479 527.4 478.8 526.2 477.8C524.4 476 521.8 470.6 522 468C522.2 467 522.8 466.6 523.6 466.2M529.8 480.4C530.4 479.4 529.6 477.8 531 477.4M1411.6 672.6L1410.6 673.2C1403.6 666.4 1396.6 659.6 1388.4 654.2C1367.8 640.6 1343.8 632.2 1321 622.8C1303.8 615.8 1285 609 1270 598C1250.4 583.4 1252.2 554.8 1237.8 536.4C1235.2 533 1231.2 529.2 1226.4 529.2C1216.8 529.2 1206.6 540.8 1197.2 534.2C1193.2 531.4 1191.4 527 1189.8 522.6C1187.8 516.6 1186.6 510.6 1185 504.6C1183.8 500.6 1182.2 495.8 1178.8 493.2C1175.2 490.2 1170.2 490 1165.8 490.4C1155.8 491.2 1146.4 496.6 1138 501.8C1134.6 504 1130.4 506.2 1128 509.4C1125.6 512.4 1124.8 516.8 1124.8 520.6C1124.8 527.2 1126.2 533.4 1128 539.8C1131.2 551.2 1135.4 563.8 1143.4 572.8C1155.6 586.2 1173.2 593.6 1185 607.6C1198.6 624 1203.8 646 1212.6 665.2C1216.8 674.4 1221.8 684.8 1230.2 691C1236.6 695.8 1244.2 695.8 1251.8 696.2C1259.6 696.6 1267.4 696.6 1275.2 696.6C1282.6 696.6 1290.8 696.2 1296.6 701.8C1303.2 708.2 1296.6 719 1293.8 725.6C1292.8 727.6 1291.2 730.6 1291.6 732.8C1292.2 735.8 1296 737.8 1298.4 739.2C1325.4 755.4 1357.8 760.2 1384.6 777C1392.6 782 1399.4 788.6 1403.6 797C1404.8 799.4 1407 803.2 1406.8 806C1406.6 809 1403.6 810.8 1401 811.2C1396 811.8 1390.2 810 1385.2 809C1370 805.8 1355 800.6 1339.4 799.6C1332.8 799.2 1325.2 798.6 1319.8 803.4C1313.8 808.8 1318 817.4 1321.4 823C1327.6 833 1335.2 841.8 1341 852C1343.2 855.6 1346.4 860.4 1346 864.8C1345.6 868.4 1343.4 871.2 1340.6 873.4C1336 877.4 1330.4 879.8 1325.2 882.6C1317 887 1312.4 892.6 1308.4 900.8C1304 910 1301.8 921.2 1294.6 928.8C1292.2 931.4 1287.2 935.4 1283.4 933.4C1279.2 931 1278 924.4 1277.6 920.2C1277 915 1277.4 908.8 1280.4 904.2C1283 900 1287.6 896.8 1291.4 893.6C1296.8 889 1304 884.4 1304.6 876.6C1305.4 864.8 1297.8 854.4 1291.8 845C1284.4 833 1278.4 820.2 1269.8 809.2C1250.8 785.2 1225.4 768.8 1199 754C1179.2 743 1158.8 732.8 1138.8 722C1113.6 708.4 1086.6 693.4 1068.4 670.8C1062 663 1057.8 654 1053.4 645C1046 630.2 1039.2 615.2 1031.4 600.8C1022 583.4 1006.8 568.8 986.2 567.4C965.6 566 945.4 571 927.2 580.8C918.6 585.4 910.4 590.8 903.4 597.8C895 606.2 890.6 618 883 627.2C879 632 873.6 636.8 867 637.4C838.6 640.2 811.8 630.4 784.6 623.6C767.6 619.4 748.2 615 731.2 621.8C728.6 623 726.2 624.4 724 626C721.2 628 718.4 630.2 716.6 633.2C712.4 640.6 715 650.4 717.2 658C720 668.2 723.4 677.8 723.4 688.4C723.4 691.4 723.6 694.4 722.8 697.2C721.8 700.8 719.4 704.4 717.2 707.4C710.4 716.6 700.6 722.8 690.8 728C670.8 738.8 649 745.2 628.8 755.4C620 760 611.6 765.2 604.8 772.4C601 776.6 598 781.4 594.8 786.2C592.2 790.2 589.2 794.2 586.2 798C579 807.2 570.2 816 565.4 826.8C562.8 832.4 561.4 838.4 562.2 844.6C564.4 857.2 575 867.2 576.8 880C577.8 887.6 573 895.6 569.4 902C561.6 916.6 552.8 931.2 542.6 944.2C539.6 948 536.4 950.8 533 954C530.8 956 529.2 958.6 526 959.2C525.6 958.6 524.6 958.6 524.4 958C524.2 957.2 524.6 956.2 524.4 955.4C523.8 953.2 522.6 951.2 522 949C521.8 948.2 521.8 947 523 946.8C525 946.8 526 950.8 526.6 952.2C527 952.8 527.6 954.2 528.4 953.4C530.2 951.6 530.8 948 531.6 945.8C531.8 945 532.4 943.8 532.2 943C531.8 942 530.2 942.4 530.4 941.2C530.4 939.6 532.6 937.6 533.6 936.4C534.6 935 535.8 933.6 537 932.2C537.2 931.8 537.8 931 538.4 931.2C539.6 931.8 539 935.6 539 936.6C539 938.6 539.6 942.2 538.8 944C538.2 945 536.8 943.4 536 943.8C534.8 944.4 533.8 948.8 534.4 950C539.2 946.2 543 940.6 546.6 935.6C554.4 924.8 560.8 913 567.2 901.4C570.8 895 575.6 886.6 574.8 879C574.6 876.6 573.4 874.6 572.4 872.4C570.4 867.8 567.8 863.4 565.6 859C563.6 855 561.6 850.8 560.6 846.4C558.8 836.6 561.8 827 567.4 819C573.6 809.6 581.4 801.2 588.2 792.2C593.2 785.6 597 778 602.6 771.8C608.2 765.6 615.2 760.8 622.4 756.6C638.4 747.6 656.2 741.4 673.2 734.2C689.2 727.6 705.4 719.6 716 705.4C717.8 703.2 719.6 700.6 720.6 697.8C721.6 694.6 721.4 691.2 721.4 688C721.4 677 717.4 666.6 714.6 656C712 646.8 710.8 637 717.2 629.2C718.6 627.4 720.6 625.8 722.4 624.6C725.6 622.2 729.2 620.4 733 619.2C747.6 614 764.6 616.6 779.2 620.2C797.8 624.8 816.2 630.6 835.2 634C845.8 636 858.4 637.8 869 634.6C876.6 632.2 881.6 626.2 886 619.8C891.4 611.8 895.8 603 902.6 596C908.4 590 915.2 585.2 922.4 581.2C938.8 571.6 956 566.6 974.8 565.2C990 564.2 1005.4 568.2 1016.8 578.4C1024.6 585.4 1030 594.4 1035.8 603C1036.4 604.2 1036.4 605.4 1037 606.6C1040.4 612.6 1043.2 619 1046 625.4C1054.4 643.8 1062.8 662.4 1076.8 677.4C1081.8 682.8 1088 687.4 1094 691.8C1106.4 701.2 1119.6 709.2 1133.2 716.6C1149.2 725.4 1165.4 734 1181.6 742.4C1220.2 762.2 1260 784.8 1281.8 824C1285 829.8 1288.4 835.8 1291.8 841.4C1295.2 846.6 1298.6 851.6 1301.4 857.2C1304.6 863.4 1307.4 870.6 1306.6 877.6C1304.8 891.6 1286.8 895.4 1281 907.2C1278.2 913 1279.2 920.4 1281 926.4C1282.4 930.8 1285.2 933.8 1289.6 930.6C1293.4 928 1296 923.4 1298.2 919.4C1302.6 910.8 1305 901.2 1310 892.8C1314.8 885.2 1323.2 882 1330.6 877.8C1335.6 874.8 1344.6 870.4 1343.8 863.6C1343 858.2 1339.8 853.2 1336.8 848.8C1331.6 840.8 1325.6 833.2 1320.4 825C1317 819.6 1312.6 812 1315.8 805.6C1319.2 798.4 1327.6 797.2 1334.6 797.2C1350.6 797.2 1366 802.4 1381.4 806.2C1386.8 807.6 1392.6 809 1398.2 809C1400.2 809 1403 809.4 1404.2 807.2C1405.4 804.6 1403 800.2 1401.8 798C1397.4 790.2 1391.6 783.8 1384.2 778.8C1364.6 765.8 1340.6 760 1319 751.2C1313.2 748.8 1307.6 746.2 1302 743.4C1298.6 741.8 1295 740.2 1292.2 737.6C1289 734.6 1289.8 731 1291 727.4C1291.4 726 1292 724.6 1292.6 723.2C1295.2 717 1301.2 706.6 1293.4 701.8C1287.2 698 1278.8 698 1271.8 698.4C1261.6 698.8 1250.2 699.8 1240.2 697.4C1227.8 694.6 1219.8 684 1214 673.2C1206.4 659.2 1202 643.8 1195.4 629.4C1192.2 622 1188.4 614.6 1183 608.6C1169.8 593.8 1149.8 586.2 1138.2 570C1136.2 567.2 1134.8 563.6 1133.4 560.4C1128.6 549.2 1123.4 536.8 1122.8 524.4C1122.6 518.8 1123.2 512 1127 507.6C1129.8 504.4 1133.4 502.2 1137 500C1146.2 494.2 1156.6 488.4 1167.8 488.4C1172 488.4 1175.8 488.4 1179.4 491C1182.8 493.4 1184.8 497.6 1186.2 501.6C1188.4 508.2 1189.4 515 1191.6 521.6C1193 525.8 1194.8 529.8 1198.4 532.6C1201.4 534.6 1205 534.2 1208.2 533.2C1213.6 531.4 1218.8 528.4 1224.4 527.4C1231.2 526.4 1237 532 1240.8 537C1255 554.8 1252.2 582.8 1271.8 597C1281.8 604 1293.4 608.8 1304.6 613.8C1324 622.4 1344 629.6 1363.4 638.6C1375 643.8 1386.6 650 1396.8 657.8C1405.4 664.6 1413.2 672.4 1419.4 681.4C1421.8 685 1423.4 689.2 1425.8 693C1426.8 692 1428.8 688.6 1428.4 687.2C1428 686 1425.4 686.4 1426.4 684.6C1428 681.8 1430.4 679.4 1432.2 677C1432.8 676.2 1434.4 675.2 1434.6 674.4M1028.8 578.4C1030.8 578.4 1030.6 581.8 1028.6 581.8C1026.8 581.8 1027.2 578.4 1028.8 578.4M1050.6 578.4C1048.4 582 1044 584.6 1042.4 588.8C1041.8 590.4 1044 589.8 1044.2 591.2C1044.4 593.6 1042.6 597 1041.6 599.2C1041.2 600 1041 601.2 1040.2 601.6C1039.4 602 1039 600.8 1038.6 600.2C1038 599 1036.6 593.8 1034.4 595C1032.6 596.2 1036 599.6 1034.4 601.4M1050.8 579.2C1050.8 582.4 1051 585.8 1051 589C1051 589.8 1051.2 592 1050.4 592.4C1049.6 592.6 1048.6 591.8 1048.2 591.4C1045.6 595.2 1045.4 600.2 1042.8 604C1041.6 605.8 1038.8 605.6 1038.4 607.6M1031 584C1033.2 583.4 1033.2 586.8 1031.2 587C1029.2 587.4 1029 584.4 1031 584M1033.2 588.8C1035.2 588.4 1035.6 591.8 1033.6 592.2C1031.2 592.4 1030.8 589.2 1033.2 588.8M1035.6 600.8L1035.4 602.2M1156.8 610.4C1158.8 610.4 1158.6 613.8 1156.6 613.8C1154.8 613.8 1155.2 610.4 1156.8 610.4M1178.6 610.4C1176.4 614 1172 616.6 1170.4 620.8C1169.8 622.4 1172 621.8 1172.2 623.2C1172.4 625.6 1170.6 629 1169.6 631.2C1169.2 632 1169 633.2 1168.2 633.6C1167.4 634 1167 632.8 1166.6 632.2C1166 630.6 1165.4 628.8 1164.4 627.6C1163.8 627.2 1163.2 626.6 1162.4 627.2C1161.4 628 1162.4 629.8 1162.8 630.8C1163.6 633.4 1164.8 638.8 1168.4 638C1170.2 637.6 1171.4 635.4 1172 633.8C1173.4 630.6 1174.2 626.4 1176.2 623.4C1176.6 623.8 1177.6 624.6 1178.4 624.4C1179.2 624 1179 621.8 1179 621C1179 617.8 1178.8 614.4 1178.8 611.2M1159 616C1161.2 615.4 1161.2 618.8 1159.2 619C1157.2 619.4 1157 616.4 1159 616M1161.2 620.8C1163.2 620.4 1163.6 623.8 1161.6 624.2C1159.2 624.4 1158.8 621.2 1161.2 620.8M1411 673L1411.2 674L1411 674.2L1410.6 673.2M1412.4 673.2L1411.6 673.6M772.8 674.4C774.8 674.4 774.6 677.8 772.6 677.8C770.8 677.8 771.2 674.4 772.8 674.4M1411 674.2C1411.8 676.6 1412 677.2 1414.4 678.2L1415.6 676.4M794.6 674.4C792.4 678 788 680.6 786.4 684.8C785.8 686.4 788 685.8 788.2 687.2C788.4 689.6 786.6 693 785.6 695.2C785.2 696 785 697.2 784.2 697.6C783.4 698 783 696.8 782.6 696.2C782 694.6 781.4 692.8 780.4 691.6C779.8 691.2 779.2 690.6 778.4 691.2C777.4 692 778.4 693.8 778.8 694.8C779.6 697.4 780.8 702.8 784.4 702C786.2 701.6 787.4 699.4 788 697.8C789.4 694.6 790.2 690.4 792.2 687.4C792.6 687.8 793.6 688.6 794.4 688.4C795.2 688 795 685.8 795 685C795 681.8 794.8 678.4 794.8 675.2M1434.8 675.2C1434.8 678 1435 681 1435 683.8C1435 685 1435.2 686.6 1434.6 687.8C1434 689 1432.6 687.2 1431.8 688.4C1429.6 691.2 1429 696 1428.4 699.4C1428.2 700.4 1427.2 700.8 1427.2 701.8C1427.2 705.2 1428.8 709 1429.4 712.4C1430.6 718.8 1431.4 725.4 1432.2 731.8C1434.8 756.2 1435.6 782.6 1449 804C1454.4 812.6 1461.8 820 1469.8 826.2C1479.8 834.2 1490.8 841.2 1502 847.6C1504.4 849 1507 850.4 1509.4 851.8C1510.8 852.4 1511.8 853.4 1513.2 852.2C1507 847.4 1499.6 844.2 1493 840C1474 828 1455.2 814 1445.6 793C1436.6 773.2 1436.4 750.4 1433.8 729.2C1433 722.2 1432.2 715 1430.4 708.2C1429.8 705.6 1429.4 702.6 1428.2 700.4M1414.4 676.2L1414.6 677M1414.6 678.2L1418.4 684.2C1417.8 684.6 1417 684.6 1416.4 685C1412.8 687.2 1420.2 690.2 1419 685.6C1419 685.2 1418.6 684.8 1418.4 684.4M1414.8 679C1414.4 679.8 1413.4 680.6 1413.4 681.4C1413.4 683.6 1416.2 682.6 1417 681.8M775 680C777.2 679.4 777.2 682.8 775.2 683C773.2 683.4 773 680.4 775 680M1416.6 682.8L1417.2 682.8M777.2 684.8C779.2 684.4 779.6 687.8 777.6 688.2C775.2 688.4 774.8 685.2 777.2 684.8M1419.2 686.2C1421.6 687.4 1423.4 692.4 1424.4 694.8C1424.6 695.4 1425.6 697.8 1424.4 698C1423.6 698.2 1423 697 1422.8 696.4C1422 695 1421 690.6 1419 690.8C1417.6 691 1418.2 692.8 1418.4 693.6C1419 695.8 1420 700 1421.8 701.6C1423.2 702.6 1425.2 701.6 1426.8 702.4M1425.8 693C1425.8 694 1425.8 694.8 1424.8 695.2M1284.8 802.4C1286.8 802.4 1286.6 805.8 1284.6 805.8C1282.8 805.8 1283.2 802.4 1284.8 802.4M1306.6 802.4C1304.4 806 1300 808.6 1298.4 812.8C1297.8 814.4 1300 813.8 1300.2 815.2C1300.4 817.6 1298.6 821 1297.6 823.2C1297.2 824 1297 825.2 1296.2 825.6C1295.4 826 1295 824.8 1294.6 824.2C1294 822.6 1293.4 820.8 1292.4 819.6C1291.8 819.2 1291.2 818.6 1290.4 819.2C1289.4 820 1290.4 821.8 1290.8 822.8C1291.6 825.4 1292.8 830.8 1296.4 830C1298.2 829.6 1299.4 827.4 1300 825.8C1301.4 822.6 1302.2 818.4 1304.2 815.4C1304.6 815.8 1305.6 816.6 1306.4 816.4C1307.2 816 1307 813.8 1307 813C1307 809.8 1306.8 806.4 1306.8 803.2M1287 808C1289.2 807.4 1289.2 810.8 1287.2 811C1285.2 811.4 1285 808.4 1287 808M1289.2 812.8C1291.2 812.4 1291.6 815.8 1289.6 816.2C1287.2 816.4 1286.8 813.2 1289.2 812.8M136.2 833C135.8 832.4 135.8 832 136.4 831.6M135.4 832.6L136.2 833.6M135.4 832.8L133.8 834.8C132.4 834 131 835.8 131.8 837.2C132.2 838 133.4 837.6 134.2 838M135.2 833.2L136 834M154.6 834.4C152.4 838 148 840.6 146.4 844.8C145.8 846.4 148 845.8 148.2 847.2C148.4 849.6 146.6 853 145.6 855.2C145.2 856 145 857.2 144.2 857.6C143.4 858 143 856.8 142.6 856.2C142 854.6 141.4 852.8 140.4 851.6C139.8 851.2 139.2 850.6 138.4 851.2C137.4 852 138.4 853.8 138.8 854.8C139.6 857.4 140.8 862.8 144.4 862C146.2 861.6 147.4 859.4 148 857.8C149.4 854.6 150.2 850.4 152.2 847.4C152.6 847.8 153.6 848.6 154.4 848.4C155.2 848 155 845.8 155 845C155 841.8 154.8 838.4 154.8 835.2M133.2 842.6C131 845.4 130.6 850.4 130.2 853.8C129 862.4 129.4 871.4 132.6 879.6C134 882.8 135.2 886 138 888.4C142 891.8 148.2 892.8 153.2 894.6C155 895.2 157.2 895.6 158.8 896.8C163.4 900.4 163.8 908.2 164 913.6C164.8 930.2 160 946.6 158.4 963C158 967.8 157.6 972.8 158.6 977.6C159 979.8 159.4 981.8 161 983.4C163.2 985.6 166.2 985 168.8 984.2C174.4 983 180 982 185.8 981.4C202 979.8 218.4 978.6 234.8 978.4C242 978.4 249.6 977.6 256.6 979.4C264.8 981.6 270.4 988.2 275 995C280.4 1003 285.2 1011.4 290.6 1019.4C295.8 1027 302.4 1034.2 311.8 1036.4C321.2 1038.6 330.4 1034 337.6 1028.6C348.2 1020.8 357.8 1010.8 369.6 1005C382.6 998.8 398 996.6 412 994C436.6 989.4 461.8 985.4 485.8 978C495.6 975 505.2 971.4 514.2 966.6C518.2 964.4 522.8 962.4 526 959.2M134 844.2C133.6 847.2 132.6 850 132.2 853C131 861.2 131.2 870.4 134.4 878.2C135.6 881.6 137.2 885.2 140.2 887.4C146.8 892.6 157.8 890.8 162.6 898.6C165 902.8 165.6 907.6 166 912.2C167 921.8 165.4 932 163.4 941.4C161.4 951.6 160.6 961.6 160.6 972C160.6 974.8 160 980.8 163 982.4C165.2 983.6 169.2 982 171.4 981.4C176.8 980.2 182.4 979.6 188 979C204.4 977.4 221 976.8 237.4 976.8C244.2 976.8 252.8 975.6 259.4 977.8C266 980.4 271.2 986.2 275.2 991.8C282.2 1001.4 287.4 1012.2 294.8 1021.6C299.6 1027.4 305 1032.8 312.4 1034.4C320.4 1036.2 328 1032.6 334.6 1028.2C346 1020.6 355.6 1009 368.4 1003.4C380.8 997.8 394.4 995.6 407.6 993C432.6 988 458 984 482.6 976.8C492.4 974 501.8 970.2 511 965.6C515.4 963.4 520.2 961.2 524.2 958.2M137.2 844.8C139.2 844.4 139.6 847.8 137.6 848.2C135.2 848.4 134.8 845.2 137.2 844.8M1513.4 852.6C1513.2 853.2 1513 853.2 1512.4 853.2M516.8 930.4C518.8 930.4 518.6 933.8 516.6 933.8C514.8 933.8 515.2 930.4 516.8 930.4M538.6 930.4L538.6 931M519 936C521.2 935.4 521.2 938.8 519.2 939C517.2 939.4 517 936.4 519 936M521.2 940.8C523.2 940.4 523.6 943.8 521.6 944.2C519.2 944.4 518.8 941.2 521.2 940.8M539 943.8L539.6 944.4M538.6 944.6L539 945M534.4 950.2L532.6 953.6"/>
 </g>
</svg>