<svg xmlns="http://www.w3.org/2000/svg"
     viewBox="271.05 297.06 175.65 286.16"
     width="800" height="1303">
  <!-- FTC Stage 93: Lebrija → Puerto Real -->
  <path d="M 422.11 321.06 C 422.70 323.55 420.27 324.91 418.63 326.58 C 417.79 326.98 417.07 327.53 416.46 328.23 C 415.51 329.39 415.55 331.20 414.45 332.28 C 413.65 332.84 412.79 333.28 411.86 333.59 C 410.47 334.61 410.32 335.64 409.10 336.86 C 408.08 337.89 406.90 338.58 405.91 339.58 C 404.53 341.00 403.52 342.69 401.94 343.98 C 397.62 347.50 394.98 349.61 389.22 349.58 C 384.05 349.55 378.79 349.89 373.63 349.61 C 368.46 349.33 363.30 347.02 358.04 346.70 C 352.27 346.37 347.61 347.42 342.45 349.94 C 331.89 355.09 332.66 369.61 335.05 379.34 C 335.68 381.88 336.61 384.94 336.86 387.53 C 337.14 390.42 337.76 392.42 338.27 395.25 C 338.72 397.73 338.20 400.88 338.20 403.44 C 338.20 405.97 338.88 409.55 338.30 411.97 C 337.21 416.59 331.15 416.48 327.89 418.64 C 323.43 421.58 318.90 423.80 314.03 426.11 C 309.91 428.06 307.54 432.28 305.28 436.03 C 303.84 438.44 302.12 440.41 300.99 443.05 C 300.13 445.05 299.44 446.92 298.48 448.86 C 297.56 450.72 297.69 451.27 297.14 453.11 C 296.43 455.48 295.05 455.78 295.96 458.72 C 296.68 461.02 298.46 462.77 299.61 464.73 C 300.47 466.17 300.66 468.41 301.66 469.73 C 302.20 470.44 303.53 470.97 303.90 471.75 C 304.24 472.45 303.96 473.19 304.17 473.87 C 304.36 474.47 305.00 475.36 305.09 475.66 C 305.37 476.61 305.58 477.78 305.65 479.11 C 305.81 481.98 306.41 484.67 307.41 487.37 C 308.65 490.72 309.36 494.31 310.20 497.77 C 311.48 503.05 314.52 508.22 318.29 512.56 C 327.51 523.22 342.11 517.45 353.78 520.36 C 356.58 521.06 358.12 522.50 360.84 523.59 C 362.35 524.19 363.68 524.11 365.16 524.91 C 366.80 525.77 367.51 527.08 368.84 528.03 C 370.66 529.36 372.25 530.33 373.98 532.06 C 375.89 533.98 377.50 535.47 379.99 536.67 C 382.83 538.05 385.68 537.55 388.15 539.08 C 390.73 540.67 391.38 542.83 392.72 545.20 C 393.41 546.41 394.40 546.55 394.93 547.97 C 395.20 548.72 395.83 550.56 395.99 551.16 C 396.78 554.11 396.31 556.14 396.31 559.22"
        fill="none"
        stroke="#0E0E0E"
        stroke-width="2.2"
        stroke-linecap="round"
        stroke-linejoin="round"/>
  <!-- Start point -->
  <circle cx="422.11" cy="321.06" r="3.5" fill="#0E0E0E"/>
  <circle cx="422.11" cy="321.06" r="6.5" fill="none" stroke="#0E0E0E" stroke-width="1.5"/>
  <!-- End point -->
  <circle cx="396.31" cy="559.22" r="3.5" fill="#0E0E0E"/>
  <circle cx="396.31" cy="559.22" r="6.5" fill="none" stroke="#0E0E0E" stroke-width="1.5"/>
</svg>