<svg xmlns="http://www.w3.org/2000/svg"
     viewBox="125.91 198.89 400.41 530.09"
     width="800" height="1059">
  <!-- FTC Stage 64: Arou → Frixe -->
  <path d="M 502.32 251.13 C 497.33 251.13 494.70 251.15 492.32 245.73 C 491.32 243.45 492.59 240.72 491.80 238.33 C 490.88 235.56 488.28 232.50 486.34 230.39 C 482.23 225.94 476.11 222.98 470.08 223.06 C 467.17 223.09 464.29 222.89 461.44 223.34 C 458.38 223.82 457.14 225.11 454.78 226.60 C 452.36 228.13 452.09 228.31 450.28 230.74 C 449.01 232.45 446.86 234.79 444.86 235.59 C 443.15 236.27 438.91 236.28 437.21 235.59 C 436.13 235.16 434.36 233.65 433.38 232.95 C 431.18 231.39 429.99 231.42 427.64 230.47 C 425.75 229.70 422.04 226.18 419.54 228.33 C 418.00 229.65 419.30 238.82 419.63 240.66 C 420.11 243.33 422.01 248.54 420.72 251.24 C 419.69 253.40 416.29 253.67 414.02 253.66 C 408.82 253.63 405.36 253.22 401.07 249.84 C 398.23 247.61 394.68 245.44 392.54 242.54 C 390.43 239.68 390.99 237.77 387.49 237.06 C 386.65 236.90 384.44 236.87 383.61 237.06 C 380.96 237.68 382.02 237.02 380.77 239.33 C 378.24 243.98 376.81 249.68 376.04 254.85 C 375.42 259.03 373.54 262.57 372.12 266.38 C 370.81 269.92 369.58 274.25 368.61 277.91 C 367.82 280.87 366.35 283.95 365.71 286.80 C 365.13 289.38 366.11 291.20 364.84 293.57 C 362.56 297.82 358.06 302.81 353.94 305.65 C 351.68 307.20 350.97 307.27 347.98 307.24 C 344.73 307.23 341.12 306.23 338.90 309.14 C 337.19 311.37 337.06 314.38 335.51 317.10 C 333.75 320.16 332.29 324.73 328.81 326.12 C 325.10 327.61 322.66 325.88 321.04 322.58 C 319.94 320.35 320.64 315.76 318.70 314.81 C 316.45 313.70 311.08 314.91 309.59 316.12 C 307.28 317.98 306.51 322.86 306.11 325.71 C 304.96 333.92 305.30 343.00 308.38 350.70 C 309.39 353.25 311.32 356.31 313.44 358.06 C 314.15 358.64 315.51 358.48 316.37 359.16 C 317.58 360.13 318.34 362.00 318.93 363.38 C 320.90 368.03 323.48 372.27 323.68 377.41 C 323.77 379.95 323.59 382.51 323.68 385.06 C 323.81 388.41 324.34 388.54 326.26 391.12 C 327.25 392.44 327.93 395.06 329.00 396.25 C 329.90 397.24 331.44 397.16 332.40 398.09 C 332.64 398.34 333.59 400.32 333.85 400.68 C 336.42 404.20 342.51 406.56 346.64 406.73 C 349.19 406.84 351.75 406.71 354.29 406.74 C 355.20 406.75 357.38 407.16 358.19 406.84 C 359.56 406.29 359.42 405.38 360.61 404.50 C 363.30 402.49 366.22 400.56 368.07 397.56 C 369.34 395.49 368.99 393.52 369.60 391.30 C 369.90 390.19 370.77 388.74 370.94 387.64 C 371.52 384.08 370.46 380.77 372.44 377.31 C 373.89 374.77 375.70 372.25 377.26 369.75 C 378.78 367.31 380.89 365.83 382.39 363.44 C 383.46 361.72 383.14 360.62 383.88 358.84 C 384.55 358.23 385.24 357.63 385.94 357.03 C 386.12 356.16 386.31 355.31 386.50 354.44 C 387.55 351.70 388.75 349.34 390.01 346.79 C 391.01 344.76 392.38 341.05 394.09 339.39 C 400.59 333.11 399.67 346.86 398.69 350.34 C 397.68 353.87 395.63 357.48 394.15 360.85 C 392.92 363.66 390.90 366.70 390.30 369.75 C 389.81 372.26 390.03 374.83 390.01 377.41 C 390.00 378.52 389.67 380.23 389.94 381.30 C 390.29 382.66 391.46 383.24 391.51 384.84 C 395.43 385.35 398.67 386.95 402.76 386.05 C 406.34 385.25 409.58 383.40 412.90 382.44 C 416.50 381.41 420.31 383.33 423.17 385.06 C 424.96 386.14 430.01 390.38 429.71 392.74 C 429.43 394.86 420.90 396.77 419.00 397.50 C 415.00 399.04 410.53 401.02 406.88 403.20 C 403.85 405.01 401.29 408.68 399.87 411.78 L 399.87 411.78 C 397.45 417.01 399.40 423.40 398.33 428.91 C 397.84 431.45 396.64 433.61 395.88 436.02 C 395.02 438.75 393.29 441.05 392.16 443.63 C 391.67 444.75 391.35 445.81 390.60 446.81 C 389.75 447.94 388.66 448.87 387.83 450.01 C 387.30 450.75 386.44 451.93 385.67 452.51 C 385.34 452.75 385.00 452.80 384.61 452.92 C 384.38 452.99 384.15 452.85 383.90 452.95 C 383.48 453.10 383.27 453.45 382.89 453.63 C 380.43 454.81 377.38 454.46 374.68 454.45 C 372.97 454.44 371.49 454.89 369.86 454.97 C 368.30 455.05 366.75 454.82 365.21 455.13 C 363.72 455.43 362.83 455.91 361.95 457.06 C 361.46 457.69 360.88 458.28 360.69 459.06 C 360.52 459.80 360.68 460.69 360.67 461.45 C 360.67 462.20 360.53 463.03 360.75 463.77 C 361.01 464.65 361.79 465.40 362.21 466.21 C 363.02 467.80 363.55 468.88 363.98 470.61 C 364.45 472.49 364.80 474.12 363.99 475.98 C 362.78 478.75 361.11 481.63 358.69 483.49 C 356.40 485.26 353.43 487.00 350.46 487.14 C 348.67 487.23 346.03 487.33 345.06 485.45 C 344.40 484.16 344.85 481.81 344.85 480.37 C 344.85 478.31 345.06 476.20 344.49 474.21 C 344.01 472.57 343.12 471.20 342.31 469.72 C 340.90 467.14 339.89 464.49 339.34 461.60 C 339.07 460.16 338.58 449.98 334.69 452.27 C 333.10 453.21 331.80 454.03 330.09 454.75 C 329.03 455.20 328.17 455.83 327.03 456.13 C 325.70 456.48 324.31 456.41 322.99 456.79 C 319.94 457.66 314.76 458.77 312.50 455.73 C 309.80 452.12 311.04 446.73 309.79 442.58 C 309.18 440.55 308.19 439.49 307.07 437.75 C 305.86 435.88 305.14 433.98 303.53 432.37 C 302.32 431.17 300.16 429.02 298.26 429.45 C 297.37 429.65 297.31 430.09 296.92 430.90 C 296.12 432.56 295.19 434.14 294.38 435.80 C 293.26 438.12 292.77 440.62 292.04 443.09 C 291.54 444.79 290.80 446.54 290.73 448.34 C 290.46 455.45 290.81 462.63 290.77 469.76 C 290.75 473.38 291.90 476.56 292.96 479.94 C 293.66 482.15 294.07 484.50 294.84 486.64 C 295.52 488.49 296.09 490.63 295.84 492.64 C 293.37 493.32 291.29 492.06 289.52 490.42 C 288.69 489.66 288.24 488.99 287.39 488.39 C 286.50 487.76 285.68 486.92 284.67 486.45 C 283.58 485.93 282.39 486.28 281.32 485.78 C 280.35 485.34 279.63 484.70 278.47 484.52 C 277.21 484.34 275.78 484.56 274.50 484.56 C 273.09 484.56 271.94 484.96 270.63 485.03 C 269.25 485.11 267.70 484.53 266.38 485.23 C 266.09 485.38 265.51 486.13 265.23 486.41 C 264.14 487.50 263.40 488.94 262.48 490.16 C 260.41 492.91 257.42 493.53 254.93 495.67 C 254.18 496.32 253.21 497.57 252.72 498.45 C 252.47 498.89 252.45 499.50 252.05 499.82 C 251.91 498.32 251.30 496.88 251.09 495.39 C 250.87 493.91 251.04 492.42 250.98 490.92 C 250.89 488.28 250.47 485.04 249.39 482.58 C 248.95 481.60 248.35 480.59 247.29 480.20 C 246.22 479.79 245.84 480.33 244.73 480.50 C 243.74 480.65 242.74 480.55 241.73 480.73 C 241.17 480.82 240.46 480.81 239.93 480.95 C 239.23 481.16 238.85 481.56 238.20 481.90 C 236.36 482.88 234.25 482.38 232.24 482.52 C 231.08 482.59 231.12 482.63 231.06 483.95 C 230.96 486.21 231.01 488.48 231.52 490.68 C 232.05 493.00 232.27 494.40 233.68 496.31 C 234.92 497.98 236.62 499.22 238.04 500.72 C 239.24 501.99 240.48 503.19 241.15 504.81 C 241.99 506.84 242.31 508.83 242.32 511.05 C 242.33 513.34 242.30 516.07 241.40 518.23 C 240.96 519.29 240.91 519.80 240.79 520.90 C 240.65 522.26 240.25 523.34 240.26 524.77 C 240.27 526.70 240.13 528.66 240.23 530.58 C 240.35 532.88 240.75 535.39 241.16 537.66 C 241.50 539.51 241.26 541.47 241.27 543.34 C 241.30 546.76 239.07 549.92 238.04 553.27 C 237.63 554.62 237.56 556.05 237.20 557.40 C 236.85 558.73 236.01 559.73 235.54 561.06 C 234.88 562.99 233.73 564.66 232.86 566.49 C 231.88 568.56 230.32 570.27 229.65 572.46 C 229.56 572.74 229.60 573.22 229.51 573.45 C 229.20 574.22 228.76 574.50 228.36 575.13 C 227.88 575.88 227.76 576.84 227.33 577.66 C 225.85 580.44 223.75 583.21 220.60 584.01 C 218.41 584.56 216.66 584.93 215.24 582.77 C 214.37 581.45 213.16 580.27 211.43 580.47 C 210.22 580.61 209.43 581.96 208.73 582.93 C 208.22 583.61 208.26 583.06 208.09 584.01 C 207.99 584.63 208.11 585.48 208.11 586.12 C 208.11 587.02 208.14 587.86 208.00 588.73 C 207.92 589.16 207.72 590.19 207.49 590.59 C 207.08 591.29 206.77 591.34 206.59 592.16 C 206.41 592.96 206.36 593.66 205.96 594.42 C 205.19 595.88 203.84 596.97 202.49 597.86 C 200.00 599.50 197.24 599.84 194.33 599.87 C 191.85 599.89 189.80 599.03 188.00 597.31 C 186.80 596.16 186.05 593.69 184.37 593.25 C 183.57 593.05 182.44 593.27 181.62 593.26 C 179.82 593.25 179.03 592.68 177.61 591.69 C 175.95 590.53 175.27 589.84 174.43 587.90 C 173.46 585.66 172.39 583.43 171.74 581.08 C 170.90 578.02 170.19 574.85 169.08 571.88 C 168.49 570.31 168.16 568.80 167.41 567.31 C 166.85 566.23 166.96 565.91 165.84 565.67 C 165.22 565.53 164.30 565.63 163.67 565.66 C 161.85 565.73 160.53 567.43 159.34 568.81 C 157.42 571.05 156.08 574.04 155.23 576.81 C 154.64 578.75 153.79 580.59 153.14 582.50 C 152.39 584.70 150.93 586.91 150.43 589.15 C 149.91 591.45 151.86 593.03 153.57 594.23 C 155.03 595.27 156.06 596.60 157.57 597.60 C 158.49 598.21 159.77 598.84 160.51 599.63 C 161.23 600.38 161.89 601.10 162.33 602.03 C 162.63 602.66 162.78 603.36 163.14 603.95 C 164.19 605.66 166.41 605.53 168.04 605.09 C 169.97 604.57 171.61 603.59 173.71 603.92 C 176.06 604.29 176.15 607.13 176.84 608.98 C 177.31 610.23 178.02 611.32 178.47 612.57 C 179.03 614.09 179.42 615.63 180.11 617.13 C 181.85 620.95 183.07 625.25 183.56 629.45 C 183.81 631.59 184.41 633.69 184.60 635.82 C 184.76 637.57 184.70 639.07 185.04 640.81 C 185.29 642.13 184.84 643.56 185.32 644.81 C 185.62 645.61 186.03 646.09 186.11 647.03 C 186.43 650.60 185.84 654.08 186.11 657.59 C 186.26 659.48 186.42 660.89 187.30 662.58 C 187.96 663.85 188.32 664.79 188.59 666.22 C 188.78 667.23 189.44 667.70 189.70 668.54 C 189.91 669.19 189.95 670.06 190.14 670.77 C 190.38 671.66 190.17 672.57 190.37 673.48 C 190.69 674.96 191.30 676.42 191.67 677.85 C 191.87 678.64 191.67 679.36 191.76 680.15 C 191.86 681.05 192.27 681.96 192.55 682.81 C 192.83 683.69 193.14 684.37 193.66 685.16 C 194.27 686.10 194.12 686.15 195.44 686.11 C 196.50 686.07 197.43 685.98 198.43 685.59 C 199.24 685.27 199.76 684.66 200.49 684.31 C 201.00 684.07 201.59 683.88 202.11 683.67 C 202.77 683.39 203.15 682.91 203.76 682.63 C 204.75 682.16 206.47 682.10 207.57 682.01 C 209.45 681.84 211.78 681.79 213.46 682.77 C 214.97 683.66 215.78 685.45 216.44 686.97 C 217.23 688.76 218.24 690.17 219.46 691.73 C 220.05 692.47 220.87 693.23 221.65 693.78 C 222.33 694.27 222.76 694.73 223.41 695.25 C 223.54 695.36 224.00 695.22 224.19 695.36 C 224.64 695.70 225.01 696.33 225.48 696.71 C 225.92 697.07 226.39 697.36 226.79 697.75 C 227.29 698.23 227.77 698.77 228.15 699.35 C 228.64 700.09 228.97 700.20 229.50 700.86 C 230.57 702.20 229.20 703.98 230.96 704.98"
        fill="none"
        stroke="#0E0E0E"
        stroke-width="2.2"
        stroke-linecap="round"
        stroke-linejoin="round"/>
  <!-- Start point -->
  <circle cx="502.32" cy="251.13" r="3.5" fill="#0E0E0E"/>
  <circle cx="502.32" cy="251.13" r="6.5" fill="none" stroke="#0E0E0E" stroke-width="1.5"/>
  <!-- End point -->
  <circle cx="230.96" cy="704.98" r="3.5" fill="#0E0E0E"/>
  <circle cx="230.96" cy="704.98" r="6.5" fill="none" stroke="#0E0E0E" stroke-width="1.5"/>
</svg>