<svg xmlns="http://www.w3.org/2000/svg"
     viewBox="68.21 404.67 577.34 189.91"
     width="800" height="263">
  <!-- FTC Stage 87: Praia da Rocha → Olhão -->
  <path d="M 92.21 429.44 C 97.36 429.44 100.52 428.67 105.60 429.30 C 111.01 429.97 114.75 433.34 119.78 435.42 C 125.83 437.92 132.47 441.98 137.82 445.34 C 144.70 449.66 151.33 452.69 158.48 456.80 C 160.88 458.17 163.36 459.73 166.10 460.30 C 172.27 461.58 175.68 460.06 181.01 457.70 C 189.60 453.91 200.16 450.42 207.72 444.38 C 211.68 441.20 210.86 441.34 215.77 440.47 C 219.62 439.78 221.01 439.39 224.59 440.47 C 228.65 441.69 229.17 442.33 232.40 445.42 C 235.63 448.53 239.99 451.16 243.52 453.95 C 249.51 458.72 254.63 462.56 262.47 464.83 C 272.73 467.81 279.67 464.19 289.47 462.00 C 293.98 461.00 297.93 459.61 302.34 458.14 C 306.14 456.87 308.60 454.83 312.11 453.06 C 318.52 449.86 324.86 451.50 331.75 450.39 C 341.22 448.86 350.40 449.77 360.06 450.62 C 365.20 451.08 367.66 452.80 371.50 455.64 C 376.69 459.48 383.41 461.20 389.35 463.39 C 395.30 465.56 400.16 469.44 405.91 471.97 C 413.98 475.50 422.13 477.36 429.42 482.27 C 437.69 487.84 446.97 491.78 453.84 499.25 C 461.31 507.36 469.42 515.14 478.37 521.61 C 486.21 527.28 494.39 533.50 501.80 539.64 C 505.43 542.66 509.51 545.39 513.09 548.45 C 516.05 551.00 518.38 555.20 521.91 557.06 C 531.99 562.36 544.11 568.45 556.18 568.34 C 564.03 568.27 574.88 570.58 581.79 566.61 C 586.65 563.80 590.08 560.09 593.88 556.64 C 598.62 552.33 602.42 548.39 608.40 546.02 C 612.83 544.25 616.75 538.36 621.55 538.50"
        fill="none"
        stroke="#0E0E0E"
        stroke-width="2.2"
        stroke-linecap="round"
        stroke-linejoin="round"/>
  <!-- Start point -->
  <circle cx="92.21" cy="429.44" r="3.5" fill="#0E0E0E"/>
  <circle cx="92.21" cy="429.44" r="6.5" fill="none" stroke="#0E0E0E" stroke-width="1.5"/>
  <!-- End point -->
  <circle cx="621.55" cy="538.50" r="3.5" fill="#0E0E0E"/>
  <circle cx="621.55" cy="538.50" r="6.5" fill="none" stroke="#0E0E0E" stroke-width="1.5"/>
</svg>