<svg xmlns="http://www.w3.org/2000/svg"
     viewBox="95.01 332.33 533.14 346.12"
     width="800" height="519">
  <!-- FTC Stage 59: O Mosteiro → Cala Burbujas, O Barral -->
  <path d="M 569.35 521.20 C 569.35 523.70 569.28 524.70 569.92 526.98 C 570.41 528.73 570.86 529.71 571.94 531.16 C 572.33 531.68 572.12 532.27 572.67 532.71 C 573.36 533.27 574.45 533.49 575.21 533.98 C 577.20 535.23 579.41 537.08 581.80 537.68 C 584.29 538.31 585.38 538.43 587.07 540.48 C 588.26 541.93 589.58 543.52 591.44 544.06 C 593.91 544.80 597.00 543.09 599.42 542.89 C 601.94 542.68 604.15 544.55 601.68 546.47 C 599.52 548.13 594.53 547.79 592.01 547.47 C 591.03 547.34 590.22 546.96 589.20 546.88 C 587.96 546.77 586.56 547.16 585.36 546.77 C 583.83 546.28 583.55 544.98 582.55 544.00 C 581.49 542.95 580.53 542.96 579.16 542.91 C 573.51 542.67 569.10 545.94 563.51 546.34 C 558.76 546.69 555.16 546.88 551.78 543.45 C 549.51 541.15 546.58 536.88 547.76 533.34 C 548.50 531.09 551.86 529.65 554.02 529.17 C 559.34 528.00 563.53 534.17 569.27 533.18 C 570.15 527.70 561.42 527.24 557.45 526.49 C 554.59 525.95 552.48 525.84 549.50 526.32 C 547.89 526.58 546.58 527.16 545.02 527.48 C 543.27 527.85 541.47 527.36 539.72 527.58 C 536.99 527.91 534.66 528.42 531.81 528.45 C 528.81 528.47 525.69 527.46 522.98 526.04 C 518.76 523.83 514.56 520.69 509.35 521.44 C 508.85 524.30 510.33 526.60 510.42 529.29 C 510.50 531.45 510.08 530.81 508.56 531.67 C 506.98 532.58 505.56 533.55 504.03 534.45 C 502.08 535.61 498.92 537.12 497.77 538.98 C 496.83 540.50 497.06 544.54 497.33 546.29 C 497.76 549.20 500.17 552.81 501.42 555.49 C 503.55 560.07 507.09 563.92 509.13 568.63 C 510.62 572.05 511.80 576.02 514.48 578.75 C 517.34 581.65 521.09 583.49 523.72 586.54 C 525.30 588.37 527.61 590.24 529.67 591.66 C 530.74 592.39 531.93 593.07 533.07 593.67 C 535.03 594.71 534.16 593.93 534.90 596.09 C 536.14 599.73 541.70 602.41 538.20 607.00 C 537.44 607.99 536.55 607.98 535.89 609.25 C 535.49 610.02 535.51 611.03 534.94 611.65 C 532.87 613.87 530.67 612.00 528.53 611.34 C 526.11 610.61 523.13 609.92 520.60 609.80 C 519.15 609.73 518.44 610.21 517.24 610.45 C 515.08 610.89 512.85 610.88 510.93 612.19 C 508.65 613.74 508.13 614.13 505.32 614.32 C 503.08 614.47 499.80 614.88 498.03 616.41 C 495.25 618.83 497.39 623.05 499.00 625.56 C 496.89 626.35 496.48 622.48 495.51 621.33 C 494.15 619.72 490.96 619.51 488.98 619.44 C 485.91 619.34 485.74 619.36 484.47 621.89 C 483.54 623.77 482.10 625.77 481.99 628.09 C 478.93 628.82 475.95 626.78 472.95 626.80 C 470.00 626.84 467.42 626.89 464.92 625.68 C 463.05 624.78 462.02 623.30 460.43 621.89 C 456.97 618.83 452.56 619.43 448.19 619.44 C 446.68 619.45 445.11 619.57 443.66 619.16 C 442.12 618.72 441.99 618.56 441.37 617.02 C 440.75 615.48 439.67 611.84 441.34 610.70 C 442.05 610.23 444.51 610.63 445.31 610.64 C 447.54 610.67 448.58 610.76 450.27 612.05 C 451.48 612.97 452.72 614.33 454.24 614.79 C 455.02 615.03 455.79 614.70 456.55 614.98 C 457.32 615.27 458.11 616.18 458.97 616.55 C 461.12 617.46 463.77 617.30 466.18 617.89 C 470.71 619.00 471.39 617.50 472.84 613.84 C 473.54 612.03 474.09 610.29 475.79 609.23 C 478.57 607.50 481.43 608.80 484.31 608.04 C 487.41 607.22 486.56 604.06 486.58 601.40 C 486.61 598.02 485.49 596.16 487.03 592.89 C 488.17 590.45 489.21 587.97 487.16 585.61 C 485.31 583.48 482.06 583.72 479.36 583.72 C 477.45 583.72 474.92 584.18 473.06 583.73 C 471.93 583.47 471.23 582.83 470.04 582.56 C 467.20 581.91 463.96 582.78 461.07 582.32 C 459.50 582.07 456.52 580.45 455.10 579.28 C 453.34 577.84 454.68 575.94 453.70 574.09 C 453.95 574.45 453.45 574.66 453.73 575.01 C 453.57 571.57 453.81 568.38 452.98 565.17 C 451.45 559.20 460.35 566.62 462.16 567.49 C 466.13 569.41 469.72 571.38 474.11 571.83 C 474.68 571.89 475.91 572.02 476.42 571.72 C 476.81 571.55 476.98 571.27 476.93 570.85 C 476.82 570.95 478.49 568.82 478.42 568.98 C 479.64 565.88 478.28 563.41 476.39 561.05 C 472.72 556.48 470.48 552.88 472.41 546.84 C 473.12 544.63 474.00 542.34 474.82 540.14 C 475.30 538.86 476.45 537.90 476.86 536.83 C 477.21 535.91 476.74 534.92 477.04 533.99 C 477.78 531.73 480.36 530.63 481.67 528.82 C 483.00 526.98 484.05 524.95 485.58 523.14 C 486.21 522.39 486.80 521.76 487.60 521.20 C 488.52 520.57 488.91 520.68 489.86 520.22 C 491.28 519.52 491.40 520.35 491.71 518.05 C 491.89 516.72 491.05 515.25 492.37 514.52 C 489.45 515.28 487.60 511.39 486.43 509.44 C 485.12 507.27 483.79 505.61 482.47 503.53 C 481.51 502.01 479.90 500.49 479.28 498.86 C 478.85 497.70 478.74 495.55 478.63 494.32 C 478.57 493.63 478.89 492.73 478.70 492.07 C 478.47 491.24 477.69 490.88 477.34 490.09 C 476.82 488.90 475.64 485.85 475.89 484.59 C 479.87 483.42 483.40 489.32 485.98 491.53 C 490.08 495.05 494.53 499.80 498.54 503.79 C 503.50 508.72 509.82 513.91 517.32 512.90 C 520.77 512.43 523.55 509.60 525.02 506.60 C 526.71 503.16 524.98 497.70 523.77 494.30 C 522.77 491.48 520.68 488.65 519.45 485.87 C 518.49 483.70 517.21 482.34 515.64 480.60 C 513.94 478.71 511.66 476.35 510.83 473.89 C 510.58 473.88 510.39 473.98 510.28 474.23 C 508.04 471.81 504.85 470.92 502.30 468.79 C 498.53 465.65 495.58 461.48 491.85 458.45 C 489.69 456.67 487.16 454.66 485.96 452.04 C 485.33 450.65 485.06 448.59 484.73 447.08 C 484.07 444.05 487.34 444.05 489.86 444.38 C 491.84 444.64 492.58 445.08 493.81 446.60 C 494.60 447.59 495.29 448.61 496.05 449.49 C 496.87 450.45 500.38 455.02 501.90 454.83 C 504.14 454.55 504.63 449.52 505.13 447.88 C 506.25 444.24 505.17 451.58 505.35 447.84 C 505.15 448.05 502.32 435.04 501.96 434.13 C 501.65 433.35 501.75 431.46 501.88 430.63 C 502.31 427.71 505.62 425.19 507.13 422.64 C 509.72 418.27 505.31 413.92 503.11 410.19 C 501.66 407.72 501.89 404.97 501.89 401.84 C 501.89 398.16 501.67 395.57 503.29 392.38 C 504.03 390.94 505.29 389.44 506.44 388.32 C 507.95 386.86 508.05 386.81 508.13 384.71 C 508.24 381.68 510.10 379.71 510.53 376.79 C 510.79 375.04 510.45 374.55 509.29 372.67 C 507.93 370.49 505.80 367.19 503.89 365.60 C 502.27 364.25 498.67 362.73 496.82 362.07 C 495.13 361.48 494.15 361.43 492.69 360.44 C 491.60 359.70 490.00 357.32 488.71 357.06 C 485.02 356.33 487.05 366.07 484.22 367.88 C 483.02 368.64 480.54 369.04 479.20 369.50 C 476.89 370.30 475.94 371.38 474.11 372.93 C 471.09 375.48 467.42 375.20 463.77 375.79 C 460.11 376.38 457.46 377.82 453.70 376.93 C 450.87 376.27 448.30 375.38 445.65 374.75 C 441.82 373.83 439.36 371.59 436.13 369.52 C 432.92 367.47 428.94 366.59 424.86 367.20 C 424.43 369.95 424.38 372.34 423.63 375.12 C 423.63 374.58 423.63 374.04 423.67 373.50 C 423.87 379.34 420.30 386.06 416.29 389.91 C 413.78 392.33 411.89 394.59 409.76 397.36 C 408.14 399.47 407.68 401.61 406.52 403.95 C 405.61 405.80 404.34 407.95 403.24 409.75 C 401.47 412.66 400.01 415.93 397.57 418.25 C 395.99 419.75 394.57 421.73 393.75 423.64 C 392.88 425.64 392.79 427.36 391.34 429.11 C 386.91 434.46 379.24 435.02 372.70 433.61 C 366.42 432.26 360.12 431.27 353.95 429.09 C 350.50 427.88 347.51 426.59 345.42 430.07 C 343.47 433.33 343.44 435.48 345.01 439.16 C 345.82 441.05 346.80 443.04 347.57 444.95 C 348.20 446.49 348.38 446.88 348.66 452.55 C 348.85 451.80 347.98 455.02 347.95 454.25 C 346.59 457.72 347.35 456.99 345.28 460.16 C 343.08 463.52 339.52 465.62 336.34 467.97 C 333.83 469.83 331.92 471.74 329.10 473.18 C 327.04 474.23 324.91 475.08 322.71 475.88 C 318.34 477.49 315.38 479.98 312.66 483.88 C 310.17 487.47 308.03 490.55 303.59 491.59 C 300.14 492.40 297.20 492.83 294.15 494.63 C 290.41 496.85 287.41 500.80 283.34 502.85 C 281.43 503.81 279.36 503.91 277.42 504.98 C 276.30 505.60 274.97 505.98 273.94 506.73 C 273.36 507.28 272.80 507.86 272.27 508.46 C 271.76 508.65 271.24 508.80 270.71 508.93 C 269.41 509.84 268.48 511.31 267.16 512.16 C 265.68 513.13 263.90 513.02 262.16 513.63 C 260.52 514.22 258.97 514.13 257.37 514.64 C 255.64 515.20 254.74 516.77 252.98 517.38 C 250.54 518.20 247.62 518.43 245.19 516.96 C 242.03 515.05 239.47 513.24 236.71 510.71 C 234.76 508.94 231.79 506.16 229.22 505.77 C 226.45 505.33 222.33 505.41 219.56 505.84 C 217.04 506.23 214.43 508.04 212.85 510.00 C 211.87 511.22 211.94 512.17 209.91 512.31 C 207.57 512.48 207.63 511.45 206.39 510.21 C 204.81 508.63 202.41 507.24 201.26 505.14 C 200.41 503.56 200.73 503.88 199.12 502.81 C 197.63 501.82 197.67 501.52 195.75 501.52 C 194.21 501.52 193.38 501.77 191.93 502.30 C 190.34 502.88 188.77 502.83 187.23 503.33 C 185.66 503.84 184.61 505.34 183.19 506.13 C 180.95 507.38 178.92 507.77 176.44 507.75 C 175.57 507.75 173.95 508.09 173.18 507.67 C 172.71 507.41 172.82 506.45 172.43 506.12 C 171.36 505.21 171.02 505.05 169.57 505.05 C 162.63 505.06 159.64 512.68 156.22 517.39 C 153.65 520.92 151.59 524.48 147.82 526.62 C 145.27 528.06 143.24 530.39 141.57 532.81 C 140.41 534.48 139.64 536.24 138.43 537.86 C 137.73 538.80 137.12 539.00 136.65 540.22 C 134.40 546.10 133.95 552.52 134.52 558.86 C 134.77 561.57 135.03 563.46 134.40 566.24 C 133.81 568.82 133.48 572.38 134.37 574.76 C 134.62 575.44 135.95 576.74 135.72 577.48 C 135.29 578.86 132.89 579.30 131.70 579.48 C 130.41 579.69 128.47 579.66 127.15 579.47 C 125.73 579.26 124.63 578.55 123.18 578.63 C 119.13 578.84 122.51 584.48 123.79 586.45 C 125.74 589.43 128.57 591.38 127.19 595.28 C 126.45 597.38 125.81 598.42 126.02 600.71 C 126.17 602.41 127.23 604.84 126.66 606.55 C 125.79 609.18 121.36 610.34 120.29 613.30 C 119.01 616.86 121.52 619.29 122.75 622.02 C 123.60 623.91 124.24 624.75 124.32 626.84 C 124.44 630.59 124.32 634.38 124.32 638.14 C 124.32 641.55 123.13 651.92 127.70 653.21 C 132.13 654.45 131.08 644.84 131.12 642.63 C 131.17 639.85 132.36 639.81 135.11 639.85 C 136.99 639.88 137.52 640.30 139.04 641.20 C 141.83 642.82 146.39 643.65 149.42 641.94 C 151.68 640.66 153.18 638.38 154.72 636.34"
        fill="none"
        stroke="#0E0E0E"
        stroke-width="2.2"
        stroke-linecap="round"
        stroke-linejoin="round"/>
  <!-- Start point -->
  <circle cx="569.35" cy="521.20" r="3.5" fill="#0E0E0E"/>
  <circle cx="569.35" cy="521.20" r="6.5" fill="none" stroke="#0E0E0E" stroke-width="1.5"/>
  <!-- End point -->
  <circle cx="154.72" cy="636.34" r="3.5" fill="#0E0E0E"/>
  <circle cx="154.72" cy="636.34" r="6.5" fill="none" stroke="#0E0E0E" stroke-width="1.5"/>
</svg>