<svg xmlns="http://www.w3.org/2000/svg"
     viewBox="84.02 247.17 510.94 371.44"
     width="800" height="581">
  <!-- FTC Stage 78: Azenhas do Mar → Samora Correia -->
  <path d="M 136.66 404.41 C 136.61 410.45 133.68 412.42 131.42 417.72 C 130.18 420.63 128.18 423.16 126.95 426.02 C 125.26 429.97 122.72 432.97 120.26 436.48 C 117.60 440.28 114.62 443.52 113.10 448.03 C 112.03 451.17 110.57 454.25 109.57 457.41 C 108.02 462.31 109.11 468.61 109.06 473.81 C 109.02 477.88 110.91 480.13 112.76 483.61 C 114.19 486.33 115.92 488.91 117.58 491.41 C 120.70 496.13 124.66 500.28 127.81 504.88 C 129.49 507.33 131.21 510.42 131.81 513.39 C 132.07 514.73 132.21 518.61 131.81 519.83 C 131.71 520.61 131.93 519.50 130.94 521.73 C 130.77 523.47 130.64 523.27 130.35 524.22 C 130.08 525.16 129.63 526.14 129.11 526.98 C 128.09 528.66 127.92 529.58 127.34 531.27 C 126.18 534.66 124.03 536.58 123.90 540.33 C 123.77 544.42 123.22 548.53 121.81 552.39 C 121.09 554.38 120.31 555.08 120.40 557.31 C 120.48 559.55 121.62 561.92 123.21 563.58 C 125.28 565.72 128.75 567.77 131.61 568.69 C 134.39 569.58 137.21 569.36 140.24 569.36 L 158.37 569.36 C 161.29 569.36 164.23 569.44 167.15 569.38 C 170.98 569.30 173.50 567.28 176.91 566.36 C 179.42 565.67 181.58 564.50 184.17 564.41 C 186.41 564.33 188.45 564.19 190.55 563.86 C 196.07 562.98 202.36 563.34 207.03 566.34 C 209.34 567.83 211.44 569.64 213.77 571.09 C 216.00 572.48 218.52 572.64 220.71 573.80 C 222.54 574.75 223.36 577.09 224.79 578.58 C 226.62 580.47 228.81 582.00 230.93 583.53 C 232.13 584.41 233.09 584.73 234.43 585.38 C 235.62 585.94 236.20 587.06 237.32 587.67 C 238.97 588.56 241.40 589.75 243.15 590.48 C 248.49 592.72 253.83 593.45 259.68 593.45 C 264.31 593.47 269.35 594.61 272.78 591.39 C 275.37 588.95 277.02 585.50 279.67 583.02 C 281.34 581.45 282.91 579.84 284.65 578.34 C 286.12 577.08 287.37 576.66 289.07 575.77 C 291.81 574.33 294.54 573.39 297.56 572.38 C 300.68 571.33 304.34 569.45 307.51 569.33 C 311.40 569.19 315.03 568.02 318.82 567.95 C 319.88 567.94 320.95 568.00 322.01 567.97 C 323.85 567.91 323.83 567.28 325.18 566.84 C 327.15 566.20 329.56 566.53 331.68 566.53 C 333.55 566.53 335.43 566.56 337.30 566.53 C 339.64 566.50 339.64 567.20 341.79 567.83 C 342.77 568.11 343.75 567.77 344.75 567.98 C 346.41 568.36 347.41 569.11 349.13 569.39 C 349.52 569.44 350.01 569.20 350.38 569.31 C 351.15 569.53 351.45 570.22 352.08 570.47 L 352.08 570.47 C 354.26 571.33 356.81 570.72 359.09 571.47 C 360.99 572.08 362.04 572.58 364.02 572.19 C 368.65 571.28 373.28 571.47 378.02 571.48 C 382.72 571.50 385.74 570.84 389.71 568.41 C 391.62 567.23 393.33 565.97 395.34 565.09 C 398.14 563.89 401.29 564.09 404.15 563.38 C 406.32 562.81 408.66 561.27 410.71 560.92 C 413.61 560.45 416.66 560.14 419.64 560.16 C 425.80 560.17 432.09 559.31 436.97 555.36 C 441.87 551.39 446.38 547.50 450.34 542.80 C 452.29 540.48 454.31 538.09 455.67 535.31 C 456.40 533.81 456.89 532.41 457.72 530.95 C 459.09 528.52 459.19 526.05 460.18 523.45 C 461.55 519.83 462.85 516.41 464.11 512.78 C 464.90 510.50 463.95 507.70 464.73 505.55 C 465.12 504.47 465.89 503.86 466.24 502.78 C 466.55 501.80 466.71 500.20 466.86 499.13 C 467.25 496.44 467.64 494.14 467.64 491.38 C 467.63 488.80 467.64 486.20 467.64 483.61 C 467.63 481.08 468.28 478.95 468.34 476.53 C 468.41 474.16 469.07 472.19 469.06 469.80 C 469.01 463.55 468.83 457.27 469.06 451.02 C 469.13 449.09 469.70 447.91 470.49 446.22 C 471.26 444.56 471.33 442.84 471.87 441.06 C 472.68 438.39 474.79 435.48 476.16 433.03 C 477.36 430.89 477.31 428.47 478.24 426.19 C 479.07 424.17 480.01 422.58 480.72 420.55 C 481.32 418.81 482.54 417.53 483.07 415.77 C 483.38 414.73 483.35 413.88 483.88 412.92 C 484.47 411.89 485.53 411.27 485.96 410.09 C 486.30 409.14 485.78 408.20 486.17 407.27 C 486.56 406.28 487.53 405.38 488.03 404.44 C 489.12 402.41 489.55 400.31 490.83 398.41 C 492.45 396.03 492.97 393.42 494.61 390.92 C 495.52 389.55 496.32 388.28 497.38 387.08 C 498.45 385.88 499.06 385.25 500.56 384.75 C 502.50 384.11 505.47 384.52 506.59 382.63 C 507.48 381.13 507.45 379.19 508.63 377.58 C 511.02 374.34 514.56 372.09 516.85 368.80 C 519.14 365.50 521.98 362.70 524.68 359.36 C 527.83 355.45 530.39 350.61 530.73 345.58 C 530.99 341.64 531.64 337.75 532.64 333.97 C 533.01 332.59 533.47 331.41 533.98 330.13 C 534.63 328.52 534.59 327.13 535.08 325.53 C 535.53 324.11 536.69 323.56 537.41 322.39 C 538.13 321.23 538.22 320.03 539.12 318.83 C 541.66 315.41 544.37 311.06 545.61 307.16 C 546.69 303.77 547.57 300.33 549.31 297.22 C 551.03 294.16 553.17 292.08 554.48 288.77 C 555.17 287.03 556.36 285.64 556.96 283.81 C 557.37 282.56 557.45 281.50 557.70 280.25 C 558.02 278.61 559.35 274.33 560.82 273.50 C 561.81 272.94 562.67 273.47 563.66 273.20 C 564.77 272.89 565.38 271.97 566.50 271.67 C 568.38 271.17 569.26 272.94 570.96 271.66"
        fill="none"
        stroke="#0E0E0E"
        stroke-width="2.2"
        stroke-linecap="round"
        stroke-linejoin="round"/>
  <!-- Start point -->
  <circle cx="136.66" cy="404.41" r="3.5" fill="#0E0E0E"/>
  <circle cx="136.66" cy="404.41" r="6.5" fill="none" stroke="#0E0E0E" stroke-width="1.5"/>
  <!-- End point -->
  <circle cx="570.96" cy="271.66" r="3.5" fill="#0E0E0E"/>
  <circle cx="570.96" cy="271.66" r="6.5" fill="none" stroke="#0E0E0E" stroke-width="1.5"/>
</svg>