<svg xmlns="http://www.w3.org/2000/svg"
     viewBox="234.83 259.27 177.35 366.23"
     width="800" height="1652">
  <!-- FTC Stage 83: Moitinha, Comporta → Praia da Aberta Nova -->
  <path d="M 388.18 349.13 C 381.48 349.13 377.93 348.33 371.65 350.89 C 370.25 351.47 368.25 352.05 367.02 352.98 C 365.58 354.09 365.77 355.02 364.64 356.28 C 363.29 357.78 359.54 358.70 357.45 357.34 C 355.92 356.33 354.94 353.56 354.29 352.00 C 353.28 349.56 353.44 348.08 351.53 346.25 C 349.68 344.47 347.71 343.19 346.14 340.61 C 344.50 337.91 343.66 334.69 341.93 332.05 C 338.36 326.61 332.77 326.92 331.62 333.42 C 331.45 334.39 331.10 338.59 331.55 339.38 C 332.42 340.92 332.58 340.20 334.15 340.95 C 335.63 341.67 335.41 341.84 337.29 342.08 C 338.62 342.23 340.03 341.55 341.29 342.33 C 343.71 343.83 343.00 346.70 342.99 349.13 C 342.98 352.41 343.35 354.59 344.10 357.63 C 345.31 362.53 347.80 370.94 345.54 375.94 C 344.07 375.64 341.25 370.47 340.12 368.97 C 338.13 366.31 337.50 363.13 335.94 360.39 C 335.18 359.05 334.43 358.95 333.38 357.70 C 332.44 356.58 332.23 354.86 331.30 353.66 C 329.52 351.34 327.51 348.80 325.60 346.56 C 323.89 344.59 322.05 342.88 320.64 340.61 C 318.79 337.64 319.35 335.25 318.58 332.11 C 317.88 329.25 316.19 327.16 314.96 324.70 C 314.31 323.41 314.48 321.98 313.65 320.70 C 312.48 318.92 310.76 318.56 308.94 317.59 C 305.00 315.50 299.54 312.55 296.50 309.13 C 292.77 304.91 290.88 298.30 286.34 294.88 C 284.43 293.44 282.14 292.69 280.24 291.41 C 277.96 289.86 276.57 288.84 273.86 287.83 C 273.65 287.75 270.72 286.53 270.67 286.48 C 269.40 285.47 269.51 284.31 267.95 283.81 C 266.20 283.27 259.55 283.28 259.16 285.23 C 258.83 286.89 261.22 288.42 261.93 289.63 C 262.53 290.64 262.59 291.80 263.23 292.81 C 264.47 294.78 266.71 296.06 268.27 297.70 C 269.20 298.70 269.74 299.91 270.64 300.94 C 271.80 302.27 273.57 302.86 274.68 304.08 C 276.74 306.34 277.84 309.72 279.49 312.28 C 280.33 313.58 281.97 315.67 283.15 316.63 C 284.07 317.38 285.10 317.56 285.98 318.25 C 287.97 319.80 289.29 321.91 290.90 323.64 C 294.48 327.50 298.51 330.89 302.21 334.55 C 306.48 338.78 310.20 342.67 313.26 347.77 C 315.77 351.94 319.79 355.39 322.80 359.31 C 325.91 363.39 328.40 368.38 329.88 373.22 C 331.70 379.16 334.06 384.63 336.26 390.19 C 337.52 393.39 338.20 396.59 339.09 399.91 C 339.39 401.02 340.00 401.42 340.19 402.95 C 340.44 404.92 339.96 406.67 340.47 408.64 C 340.86 410.14 341.27 411.42 341.58 412.94 C 341.81 414.09 342.47 415.17 342.68 416.05 L 342.68 416.05 C 343.29 418.53 344.11 420.69 344.31 423.25 C 344.51 425.66 344.52 427.80 345.79 429.98 C 346.50 431.19 347.58 431.44 348.39 432.67 C 349.80 434.83 350.95 440.17 351.54 442.66 C 352.26 445.70 352.44 448.81 353.03 451.88 C 353.42 453.89 354.26 454.97 354.36 457.16 C 354.45 458.94 354.19 460.77 354.30 462.55 C 354.42 464.48 355.23 465.59 355.63 467.41 C 356.08 469.47 355.75 471.80 355.75 473.92 C 355.74 477.25 355.19 481.08 355.87 484.30 C 357.61 492.50 357.17 500.84 357.17 509.34 L 357.17 529.05 C 357.17 532.81 357.16 536.59 357.17 540.36 C 357.18 546.63 356.24 552.45 355.75 558.64 C 355.20 565.42 352.65 572.13 351.42 578.69 C 351.04 580.73 351.76 582.91 351.37 584.98 L 351.37 584.98 C 350.73 588.48 348.90 591.70 347.86 595.08 C 347.08 597.63 347.24 598.86 347.24 601.50"
        fill="none"
        stroke="#0E0E0E"
        stroke-width="2.2"
        stroke-linecap="round"
        stroke-linejoin="round"/>
  <!-- Start point -->
  <circle cx="388.18" cy="349.13" r="3.5" fill="#0E0E0E"/>
  <circle cx="388.18" cy="349.13" r="6.5" fill="none" stroke="#0E0E0E" stroke-width="1.5"/>
  <!-- End point -->
  <circle cx="347.24" cy="601.50" r="3.5" fill="#0E0E0E"/>
  <circle cx="347.24" cy="601.50" r="6.5" fill="none" stroke="#0E0E0E" stroke-width="1.5"/>
</svg>